<svg version="1.1" viewBox="0.0 0.0 960.0 540.0" fill="none" stroke="none" stroke-linecap="square" stroke-miterlimit="10" xmlns:xlink="http://www.w3.org/1999/xlink" xmlns="http://www.w3.org/2000/svg"><clipPath id="g8d6673586f_0_105.0"><path d="m0 0l960.0 0l0 540.0l-960.0 0l0 -540.0z" clip-rule="nonzero"/></clipPath><g clip-path="url(#g8d6673586f_0_105.0)"><path fill="#ffffff" d="m0 0l960.0 0l0 540.0l-960.0 0z" fill-rule="evenodd"/><path fill="#a6bfa5" d="m0 60.923885l0 -60.94488l960.53546 0l0 60.94488z" fill-rule="evenodd"/><path shape-rendering="crispEdges" fill="#a6bfa5" d="m277.44095 203.88715l202.55905 0l0 88.68765l-202.55905 0l0 -88.68765z" fill-rule="nonzero"/><path shape-rendering="crispEdges" fill="#a6bfa5" d="m480.0 203.88715l202.55908 0l0 88.68765l-202.55908 0l0 -88.68765z" fill-rule="nonzero"/><path shape-rendering="crispEdges" fill="#a6bfa5" d="m682.5591 203.88715l202.55902 0l0 88.68765l-202.55902 0l0 -88.68765z" fill-rule="nonzero"/><path stroke="#ffffff" stroke-width="1.0" stroke-linecap="butt" d="m74.88189 203.38846l0 88.18634" fill-rule="nonzero"/><path stroke="#a6bfa5" stroke-width="2.0" stroke-linecap="butt" d="m74.88189 291.5748l0 211.55643" fill-rule="nonzero"/><path stroke="#a6bfa5" stroke-width="2.0" stroke-linecap="butt" d="m277.44095 202.88715l0 300.24408" fill-rule="nonzero"/><path stroke="#a6bfa5" stroke-width="2.0" stroke-linecap="butt" d="m480.0 202.88715l0 300.24408" fill-rule="nonzero"/><path stroke="#a6bfa5" stroke-width="2.0" stroke-linecap="butt" d="m682.5591 202.88715l0 300.24408" fill-rule="nonzero"/><path stroke="#a6bfa5" stroke-width="2.0" stroke-linecap="butt" d="m885.1181 202.88715l0 300.24408" fill-rule="nonzero"/><path stroke="#ffffff" stroke-width="1.0" stroke-linecap="butt" d="m74.3832 203.88715l202.05774 0" fill-rule="nonzero"/><path stroke="#a6bfa5" stroke-width="2.0" stroke-linecap="butt" d="m276.44095 203.88715l609.6771 0" fill-rule="nonzero"/><path stroke="#a6bfa5" stroke-width="2.0" stroke-linecap="butt" d="m73.88189 292.5748l812.2362 0" fill-rule="nonzero"/><path stroke="#a6bfa5" stroke-width="2.0" stroke-linecap="butt" d="m73.88189 355.04987l812.2362 0" fill-rule="nonzero"/><path stroke="#a6bfa5" stroke-width="2.0" stroke-linecap="butt" d="m73.88189 439.65616l812.2362 0" fill-rule="nonzero"/><path stroke="#a6bfa5" stroke-width="2.0" stroke-linecap="butt" d="m73.88189 502.13123l812.2362 0" fill-rule="nonzero"/><path fill="#ffffff" d="m341.95096 237.92714l0 -16.796875l1.46875 0l11.59375 14.59375l-0.765625 0l0 -14.59375l1.75 0l0 16.796875l-1.46875 0l-11.5625 -14.59375l0.765625 0l0 14.59375l-1.78125 0zm21.090088 -8.65625l8.890625 0l0 1.53125l-8.890625 0l0 -1.53125zm0.203125 8.65625l-1.78125 0l0 -16.796875l11.515625 0l0 1.53125l-9.734375 0l0 15.265625zm16.796326 0l0 -15.265625l-5.90625 0l0 -1.53125l13.59375 0l0 1.53125l-5.90625 0l0 15.265625l-1.78125 0zm15.501434 -5.765625l0 -1.484375l6.296875 0l0 1.484375l-6.296875 0zm18.190308 5.765625l0 -16.078125l0.765625 0.8125l-4.71875 0l0 -1.53125l5.6875 0l0 16.796875l-1.734375 0z" fill-rule="nonzero"/><path fill="#ffffff" d="m542.026 237.92714l0 -16.796875l1.46875 0l11.59375 14.59375l-0.765625 0l0 -14.59375l1.75 0l0 16.796875l-1.46875 0l-11.5625 -14.59375l0.765625 0l0 14.59375l-1.78125 0zm21.090088 -8.65625l8.890625 0l0 1.53125l-8.890625 0l0 -1.53125zm0.203125 8.65625l-1.78125 0l0 -16.796875l11.515625 0l0 1.53125l-9.734375 0l0 15.265625zm16.796326 0l0 -15.265625l-5.90625 0l0 -1.53125l13.59375 0l0 1.53125l-5.90625 0l0 15.265625l-1.78125 0zm15.501465 -5.765625l0 -1.484375l6.296875 0l0 1.484375l-6.296875 0zm14.955933 5.765625l0 -1.21875l6.984375 -6.84375q0.953125 -0.9375 1.4375 -1.640625q0.484375 -0.71875 0.640625 -1.328125q0.171875 -0.625 0.171875 -1.1875q0 -1.46875 -1.0 -2.296875q-0.984375 -0.84375 -2.9375 -0.84375q-1.484375 0 -2.625 0.453125q-1.140625 0.453125 -1.953125 1.421875l-1.21875 -1.0625q0.984375 -1.15625 2.515625 -1.765625q1.53125 -0.625 3.4375 -0.625q1.703125 0 2.9375 0.546875q1.25 0.53125 1.9375 1.5625q0.6875 1.03125 0.6875 2.421875q0 0.8125 -0.234375 1.609375q-0.21875 0.78125 -0.8125 1.671875q-0.59375 0.875 -1.71875 1.96875l-6.40625 6.296875l-0.484375 -0.671875l10.421875 0l0 1.53125l-11.78125 0z" fill-rule="nonzero"/><path fill="#ffffff" d="m744.63306 237.92714l0 -16.796875l1.46875 0l11.59375 14.59375l-0.765625 0l0 -14.59375l1.75 0l0 16.796875l-1.46875 0l-11.5625 -14.59375l0.765625 0l0 14.59375l-1.78125 0zm21.090088 -8.65625l8.890625 0l0 1.53125l-8.890625 0l0 -1.53125zm0.203125 8.65625l-1.78125 0l0 -16.796875l11.515625 0l0 1.53125l-9.734375 0l0 15.265625zm16.796326 0l0 -15.265625l-5.90625 0l0 -1.53125l13.59375 0l0 1.53125l-5.90625 0l0 15.265625l-1.78125 0zm15.501465 -5.765625l0 -1.484375l6.296875 0l0 1.484375l-6.296875 0zm20.284058 5.90625q-1.828125 0 -3.453125 -0.578125q-1.609375 -0.59375 -2.59375 -1.578125l0.84375 -1.375q0.8125 0.84375 2.1875 1.40625q1.375 0.546875 3.015625 0.546875q2.09375 0 3.203125 -0.90625q1.109375 -0.921875 1.109375 -2.453125q0 -1.546875 -1.09375 -2.453125q-1.078125 -0.90625 -3.4375 -0.90625l-1.203125 0l0 -1.28125l5.1875 -6.5l0.234375 0.671875l-9.359375 0l0 -1.53125l10.8125 0l0 1.21875l-5.1875 6.5l-0.84375 -0.546875l0.65625 0q3.015625 0 4.515625 1.34375q1.5 1.34375 1.5 3.453125q0 1.421875 -0.671875 2.546875q-0.671875 1.125 -2.03125 1.78125q-1.359375 0.640625 -3.390625 0.640625z" fill-rule="nonzero"/><path fill="#a6bfa5" d="m114.58775 332.75543q-1.890625 0 -3.515625 -0.625q-1.625 -0.640625 -2.8125 -1.796875q-1.1875 -1.171875 -1.84375 -2.71875q-0.65625 -1.546875 -0.65625 -3.40625q0 -1.84375 0.65625 -3.390625q0.65625 -1.546875 1.84375 -2.703125q1.1875 -1.171875 2.796875 -1.796875q1.609375 -0.640625 3.53125 -0.640625q1.890625 0 3.5 0.640625q1.609375 0.625 2.796875 1.78125q1.1875 1.140625 1.84375 2.703125q0.671875 1.5625 0.671875 3.40625q0 1.859375 -0.671875 3.421875q-0.65625 1.546875 -1.84375 2.703125q-1.1875 1.15625 -2.796875 1.796875q-1.609375 0.625 -3.5 0.625zm0 -1.578125q1.515625 0 2.796875 -0.515625q1.28125 -0.515625 2.234375 -1.46875q0.953125 -0.953125 1.46875 -2.203125q0.53125 -1.265625 0.53125 -2.78125q0 -1.5 -0.53125 -2.765625q-0.515625 -1.265625 -1.46875 -2.203125q-0.953125 -0.953125 -2.234375 -1.46875q-1.28125 -0.515625 -2.796875 -0.515625q-1.515625 0 -2.8125 0.515625q-1.296875 0.515625 -2.25 1.46875q-0.9375 0.9375 -1.484375 2.203125q-0.53125 1.265625 -0.53125 2.765625q0 1.5 0.53125 2.765625q0.546875 1.265625 1.484375 2.21875q0.953125 0.953125 2.25 1.46875q1.296875 0.515625 2.8125 0.515625zm12.432816 1.4375l0 -12.59375l1.640625 0l0 3.421875l-0.171875 -0.59375q0.53125 -1.4375 1.765625 -2.1875q1.25 -0.765625 3.109375 -0.765625l0 1.65625q-0.109375 0 -0.203125 -0.015625q-0.09375 -0.015625 -0.1875 -0.015625q-1.984375 0 -3.125 1.21875q-1.125 1.21875 -1.125 3.4375l0 6.4375l-1.703125 0zm16.386597 0l0 -2.78125l-0.0625 -0.453125l0 -4.65625q0 -1.609375 -0.90625 -2.46875q-0.890625 -0.875 -2.671875 -0.875q-1.21875 0 -2.328125 0.40625q-1.109375 0.40625 -1.875 1.078125l-0.765625 -1.265625q0.953125 -0.8125 2.296875 -1.25q1.34375 -0.453125 2.84375 -0.453125q2.4375 0 3.765625 1.21875q1.34375 1.203125 1.34375 3.671875l0 7.828125l-1.640625 0zm-4.34375 0.125q-1.40625 0 -2.453125 -0.46875q-1.046875 -0.46875 -1.609375 -1.296875q-0.546875 -0.828125 -0.546875 -1.90625q0 -0.984375 0.46875 -1.78125q0.46875 -0.8125 1.53125 -1.296875q1.078125 -0.5 2.875 -0.5l4.34375 0l0 1.265625l-4.296875 0q-1.8125 0 -2.53125 0.65625q-0.703125 0.640625 -0.703125 1.609375q0 1.078125 0.84375 1.734375q0.84375 0.640625 2.34375 0.640625q1.4375 0 2.484375 -0.65625q1.046875 -0.671875 1.53125 -1.921875l0.375 1.1875q-0.46875 1.234375 -1.65625 1.984375q-1.1875 0.75 -3.0 0.75zm15.847458 0q-1.875 0 -3.359375 -0.828125q-1.46875 -0.828125 -2.3125 -2.28125q-0.828125 -1.453125 -0.828125 -3.328125q0 -1.890625 0.828125 -3.328125q0.84375 -1.453125 2.3125 -2.265625q1.484375 -0.8125 3.359375 -0.8125q1.609375 0 2.90625 0.625q1.296875 0.625 2.03125 1.875l-1.265625 0.859375q-0.65625 -0.953125 -1.609375 -1.40625q-0.953125 -0.46875 -2.09375 -0.46875q-1.34375 0 -2.421875 0.609375q-1.078125 0.609375 -1.703125 1.71875q-0.625 1.109375 -0.625 2.59375q0 1.484375 0.625 2.59375q0.625 1.109375 1.703125 1.71875q1.078125 0.609375 2.421875 0.609375q1.140625 0 2.09375 -0.453125q0.953125 -0.453125 1.609375 -1.390625l1.265625 0.859375q-0.734375 1.21875 -2.03125 1.859375q-1.296875 0.640625 -2.90625 0.640625zm8.085587 -0.125l0 -17.8125l1.703125 0l0 17.8125l-1.703125 0zm11.815353 0.125q-1.96875 0 -3.46875 -0.828125q-1.484375 -0.828125 -2.328125 -2.28125q-0.828125 -1.453125 -0.828125 -3.328125q0 -1.875 0.796875 -3.3125q0.8125 -1.4375 2.203125 -2.265625q1.40625 -0.828125 3.15625 -0.828125q1.78125 0 3.15625 0.8125q1.390625 0.796875 2.171875 2.25q0.796875 1.453125 0.796875 3.34375q0 0.125 -0.015625 0.265625q0 0.125 0 0.265625l-10.96875 0l0 -1.28125l10.046875 0l-0.671875 0.515625q0 -1.375 -0.59375 -2.4375q-0.578125 -1.078125 -1.59375 -1.671875q-1.0 -0.59375 -2.328125 -0.59375q-1.296875 0 -2.328125 0.59375q-1.03125 0.59375 -1.609375 1.6875q-0.5625 1.078125 -0.5625 2.46875l0 0.265625q0 1.4375 0.625 2.53125q0.640625 1.09375 1.78125 1.703125q1.140625 0.609375 2.609375 0.609375q1.140625 0 2.140625 -0.40625q1.0 -0.40625 1.71875 -1.25l0.953125 1.109375q-0.828125 1.0 -2.09375 1.53125q-1.265625 0.53125 -2.765625 0.53125zm21.92456 0q-1.625 0 -2.953125 -0.75q-1.3125 -0.765625 -2.09375 -2.1875q-0.78125 -1.4375 -0.78125 -3.5q0 -2.0625 0.765625 -3.484375q0.765625 -1.4375 2.078125 -2.171875q1.328125 -0.75 2.984375 -0.75q1.8125 0 3.234375 0.8125q1.421875 0.796875 2.234375 2.25q0.82814026 1.453125 0.82814026 3.34375q0 1.921875 -0.82814026 3.359375q-0.8125 1.4375 -2.234375 2.265625q-1.421875 0.8125 -3.234375 0.8125zm-6.5 4.53125l0 -17.25l1.640625 0l0 3.78125l-0.171875 2.53125l0.234375 2.53125l0 8.40625l-1.703125 0zm6.390625 -6.046875q1.34375 0 2.390625 -0.609375q1.0625 -0.609375 1.6875 -1.71875q0.625 -1.125 0.625 -2.59375q0 -1.46875 -0.625 -2.5625q-0.625 -1.109375 -1.6875 -1.734375q-1.046875 -0.625 -2.390625 -0.625q-1.34375 0 -2.421875 0.625q-1.0625 0.625 -1.671875 1.734375q-0.609375 1.09375 -0.609375 2.5625q0 1.46875 0.609375 2.59375q0.609375 1.109375 1.671875 1.71875q1.078125 0.609375 2.421875 0.609375zm9.881332 1.390625l0 -12.59375l1.640625 0l0 3.421875l-0.171875 -0.59375q0.53125 -1.4375 1.765625 -2.1875q1.25 -0.765625 3.109375 -0.765625l0 1.65625q-0.109375 0 -0.203125 -0.015625q-0.09375 -0.015625 -0.1875 -0.015625q-1.984375 0 -3.125 1.21875q-1.125 1.21875 -1.125 3.4375l0 6.4375l-1.703125 0zm9.431976 0l0 -12.59375l1.703125 0l0 12.59375l-1.703125 0zm0.875 -15.390625q-0.53125 0 -0.890625 -0.359375q-0.359375 -0.359375 -0.359375 -0.859375q0 -0.5 0.359375 -0.84375q0.359375 -0.359375 0.890625 -0.359375q0.53125 0 0.890625 0.34375q0.359375 0.328125 0.359375 0.84375q0 0.515625 -0.359375 0.875q-0.34375 0.359375 -0.890625 0.359375zm10.815369 15.515625q-1.875 0 -3.359375 -0.828125q-1.46875 -0.828125 -2.3125 -2.28125q-0.828125 -1.453125 -0.828125 -3.328125q0 -1.890625 0.828125 -3.328125q0.84375 -1.453125 2.3125 -2.265625q1.484375 -0.8125 3.359375 -0.8125q1.609375 0 2.90625 0.625q1.296875 0.625 2.03125 1.875l-1.265625 0.859375q-0.65625 -0.953125 -1.609375 -1.40625q-0.953125 -0.46875 -2.09375 -0.46875q-1.34375 0 -2.421875 0.609375q-1.078125 0.609375 -1.703125 1.71875q-0.625 1.109375 -0.625 2.59375q0 1.484375 0.625 2.59375q0.625 1.109375 1.703125 1.71875q1.078125 0.609375 2.421875 0.609375q1.140625 0 2.09375 -0.453125q0.953125 -0.453125 1.609375 -1.390625l1.265625 0.859375q-0.734375 1.21875 -2.03125 1.859375q-1.296875 0.640625 -2.90625 0.640625zm13.420959 0q-1.96875 0 -3.46875 -0.828125q-1.484375 -0.828125 -2.328125 -2.28125q-0.828125 -1.453125 -0.828125 -3.328125q0 -1.875 0.796875 -3.3125q0.8125 -1.4375 2.203125 -2.265625q1.40625 -0.828125 3.15625 -0.828125q1.78125 0 3.15625 0.8125q1.390625 0.796875 2.171875 2.25q0.796875 1.453125 0.796875 3.34375q0 0.125 -0.015625 0.265625q0 0.125 0 0.265625l-10.96875 0l0 -1.28125l10.046875 0l-0.671875 0.515625q0 -1.375 -0.59375 -2.4375q-0.578125 -1.078125 -1.59375 -1.671875q-1.0 -0.59375 -2.328125 -0.59375q-1.296875 0 -2.328125 0.59375q-1.03125 0.59375 -1.609375 1.6875q-0.5625 1.078125 -0.5625 2.46875l0 0.265625q0 1.4375 0.625 2.53125q0.640625 1.09375 1.78125 1.703125q1.140625 0.609375 2.609375 0.609375q1.140625 0 2.140625 -0.40625q1.0 -0.40625 1.71875 -1.25l0.953125 1.109375q-0.828125 1.0 -2.09375 1.53125q-1.265625 0.53125 -2.765625 0.53125z" fill-rule="nonzero"/><path fill="#a6bfa5" d="m367.7058 328.29294l0 -16.28125l0.875 0l0 16.28125l-0.875 0zm0.359375 -1.96875q-1.34375 0 -2.59375 -0.4375q-1.234375 -0.453125 -1.90625 -1.140625l0.5 -0.984375q0.640625 0.609375 1.71875 1.046875q1.09375 0.421875 2.28125 0.421875q1.15625 0 1.875 -0.28125q0.71875 -0.296875 1.046875 -0.78125q0.34375 -0.484375 0.34375 -1.078125q0 -0.703125 -0.40625 -1.140625q-0.40625 -0.4375 -1.0625 -0.6875q-0.65625 -0.25 -1.453125 -0.4375q-0.796875 -0.1875 -1.609375 -0.40625q-0.796875 -0.21875 -1.46875 -0.578125q-0.65625 -0.359375 -1.0625 -0.953125q-0.40625 -0.609375 -0.40625 -1.578125q0 -0.90625 0.46875 -1.65625q0.484375 -0.75 1.46875 -1.203125q0.984375 -0.46875 2.53125 -0.46875q1.03125 0 2.03125 0.296875q1.0 0.28125 1.734375 0.78125l-0.4375 1.015625q-0.78125 -0.515625 -1.65625 -0.75q-0.875 -0.25 -1.6875 -0.25q-1.09375 0 -1.8125 0.296875q-0.703125 0.296875 -1.046875 0.796875q-0.328125 0.484375 -0.328125 1.109375q0 0.703125 0.40625 1.140625q0.40625 0.4375 1.0625 0.6875q0.671875 0.234375 1.46875 0.421875q0.796875 0.1875 1.578125 0.421875q0.796875 0.21875 1.46875 0.578125q0.671875 0.34375 1.078125 0.9375q0.40625 0.59375 0.40625 1.546875q0 0.875 -0.484375 1.640625q-0.484375 0.75 -1.484375 1.21875q-1.0 0.453125 -2.5625 0.453125zm10.078613 0q-1.296875 0 -2.484375 -0.421875q-1.171875 -0.4375 -1.875 -1.140625l0.609375 -0.984375q0.578125 0.59375 1.5625 1.0q1.0 0.390625 2.171875 0.390625q1.53125 0 2.328125 -0.671875q0.8125 -0.6875 0.8125 -1.796875q0 -0.78125 -0.375 -1.34375q-0.359375 -0.5625 -1.25 -0.875q-0.875 -0.3125 -2.421875 -0.3125l-2.578125 0l0.625 -6.078125l6.625 0l0 1.109375l-6.125 0l0.640625 -0.609375l-0.546875 5.09375l-0.640625 -0.625l2.28125 0q1.828125 0 2.9375 0.453125q1.109375 0.453125 1.59375 1.265625q0.5 0.796875 0.5 1.875q0 1.015625 -0.484375 1.859375q-0.484375 0.84375 -1.453125 1.328125q-0.96875 0.484375 -2.453125 0.484375zm10.807678 0q-1.40625 0 -2.5 -0.734375q-1.078125 -0.75 -1.703125 -2.125q-0.625 -1.375 -0.625 -3.3125q0 -1.9375 0.625 -3.3125q0.625 -1.390625 1.703125 -2.125q1.09375 -0.734375 2.5 -0.734375q1.40625 0 2.5 0.734375q1.09375 0.734375 1.71875 2.125q0.640625 1.375 0.640625 3.3125q0 1.9375 -0.640625 3.3125q-0.625 1.375 -1.71875 2.125q-1.09375 0.734375 -2.5 0.734375zm0 -1.15625q1.078125 0 1.875 -0.578125q0.796875 -0.578125 1.25 -1.6875q0.453125 -1.125 0.453125 -2.75q0 -1.625 -0.453125 -2.734375q-0.453125 -1.125 -1.25 -1.703125q-0.796875 -0.59375 -1.875 -0.59375q-1.03125 0 -1.859375 0.59375q-0.8125 0.578125 -1.265625 1.703125q-0.4375 1.109375 -0.4375 2.734375q0 1.625 0.4375 2.75q0.453125 1.109375 1.265625 1.6875q0.828125 0.578125 1.859375 0.578125z" fill-rule="nonzero"/><path fill="#a6bfa5" d="m560.6565 328.29294l0 -16.28125l0.875 0l0 16.28125l-0.875 0zm0.359375 -1.96875q-1.34375 0 -2.59375 -0.4375q-1.234375 -0.453125 -1.90625 -1.140625l0.5 -0.984375q0.640625 0.609375 1.71875 1.046875q1.09375 0.421875 2.28125 0.421875q1.15625 0 1.875 -0.28125q0.71875 -0.296875 1.046875 -0.78125q0.34375 -0.484375 0.34375 -1.078125q0 -0.703125 -0.40625 -1.140625q-0.40625 -0.4375 -1.0625 -0.6875q-0.65625 -0.25 -1.453125 -0.4375q-0.796875 -0.1875 -1.609375 -0.40625q-0.796875 -0.21875 -1.46875 -0.578125q-0.65625 -0.359375 -1.0625 -0.953125q-0.40625 -0.609375 -0.40625 -1.578125q0 -0.90625 0.46875 -1.65625q0.484375 -0.75 1.46875 -1.203125q0.984375 -0.46875 2.53125 -0.46875q1.03125 0 2.03125 0.296875q1.0 0.28125 1.734375 0.78125l-0.4375 1.015625q-0.78125 -0.515625 -1.65625 -0.75q-0.875 -0.25 -1.6875 -0.25q-1.09375 0 -1.8125 0.296875q-0.703125 0.296875 -1.046875 0.796875q-0.328125 0.484375 -0.328125 1.109375q0 0.703125 0.40625 1.140625q0.40625 0.4375 1.0625 0.6875q0.671875 0.234375 1.46875 0.421875q0.796875 0.1875 1.578125 0.421875q0.796875 0.21875 1.46875 0.578125q0.671875 0.34375 1.078125 0.9375q0.40625 0.59375 0.40625 1.546875q0 0.875 -0.484375 1.640625q-0.484375 0.75 -1.484375 1.21875q-1.0 0.453125 -2.5625 0.453125zm8.186523 -0.109375l0 -11.609375l0.546875 0.59375l-3.40625 0l0 -1.109375l4.109375 0l0 12.125l-1.25 0zm8.974182 0.109375q-1.40625 0 -2.5 -0.734375q-1.078125 -0.75 -1.703125 -2.125q-0.625 -1.375 -0.625 -3.3125q0 -1.9375 0.625 -3.3125q0.625 -1.390625 1.703125 -2.125q1.09375 -0.734375 2.5 -0.734375q1.40625 0 2.5 0.734375q1.09375 0.734375 1.71875 2.125q0.640625 1.375 0.640625 3.3125q0 1.9375 -0.640625 3.3125q-0.625 1.375 -1.71875 2.125q-1.09375 0.734375 -2.5 0.734375zm0 -1.15625q1.078125 0 1.875 -0.578125q0.796875 -0.578125 1.25 -1.6875q0.453125 -1.125 0.453125 -2.75q0 -1.625 -0.453125 -2.734375q-0.453125 -1.125 -1.25 -1.703125q-0.796875 -0.59375 -1.875 -0.59375q-1.03125 0 -1.859375 0.59375q-0.8125 0.578125 -1.265625 1.703125q-0.4375 1.109375 -0.4375 2.734375q0 1.625 0.4375 2.75q0.453125 1.109375 1.265625 1.6875q0.828125 0.578125 1.859375 0.578125zm11.47113 1.15625q-1.40625 0 -2.5 -0.734375q-1.078125 -0.75 -1.703125 -2.125q-0.625 -1.375 -0.625 -3.3125q0 -1.9375 0.625 -3.3125q0.625 -1.390625 1.703125 -2.125q1.09375 -0.734375 2.5 -0.734375q1.40625 0 2.5 0.734375q1.09375 0.734375 1.71875 2.125q0.640625 1.375 0.640625 3.3125q0 1.9375 -0.640625 3.3125q-0.625 1.375 -1.71875 2.125q-1.09375 0.734375 -2.5 0.734375zm0 -1.15625q1.078125 0 1.875 -0.578125q0.796875 -0.578125 1.25 -1.6875q0.453125 -1.125 0.453125 -2.75q0 -1.625 -0.453125 -2.734375q-0.453125 -1.125 -1.25 -1.703125q-0.796875 -0.59375 -1.875 -0.59375q-1.03125 0 -1.859375 0.59375q-0.8125 0.578125 -1.265625 1.703125q-0.4375 1.109375 -0.4375 2.734375q0 1.625 0.4375 2.75q0.453125 1.109375 1.265625 1.6875q0.828125 0.578125 1.859375 0.578125zm11.471191 1.15625q-1.40625 0 -2.5 -0.734375q-1.078125 -0.75 -1.703125 -2.125q-0.625 -1.375 -0.625 -3.3125q0 -1.9375 0.625 -3.3125q0.625 -1.390625 1.703125 -2.125q1.09375 -0.734375 2.5 -0.734375q1.40625 0 2.5 0.734375q1.09375 0.734375 1.71875 2.125q0.640625 1.375 0.640625 3.3125q0 1.9375 -0.640625 3.3125q-0.625 1.375 -1.71875 2.125q-1.09375 0.734375 -2.5 0.734375zm0 -1.15625q1.078125 0 1.875 -0.578125q0.796875 -0.578125 1.25 -1.6875q0.453125 -1.125 0.453125 -2.75q0 -1.625 -0.453125 -2.734375q-0.453125 -1.125 -1.25 -1.703125q-0.796875 -0.59375 -1.875 -0.59375q-1.03125 0 -1.859375 0.59375q-0.8125 0.578125 -1.265625 1.703125q-0.4375 1.109375 -0.4375 2.734375q0 1.625 0.4375 2.75q0.453125 1.109375 1.265625 1.6875q0.828125 0.578125 1.859375 0.578125z" fill-rule="nonzero"/><path fill="#a6bfa5" d="m781.5758 322.05856l0 -1.078125l4.53125 0l0 1.078125l-4.53125 0z" fill-rule="nonzero"/><path fill="#a6bfa5" d="m130.33284 395.2305q-1.890625 0 -3.5000076 -0.625q-1.609375 -0.640625 -2.796875 -1.796875q-1.171875 -1.15625 -1.828125 -2.703125q-0.65625 -1.5625 -0.65625 -3.421875q0 -1.84375 0.65625 -3.40625q0.65625 -1.5625 1.84375 -2.703125q1.1875 -1.15625 2.796875 -1.78125q1.6093826 -0.640625 3.5156326 -0.640625q1.8125 0 3.421875 0.609375q1.609375 0.609375 2.71875 1.828125l-1.125 1.125q-1.03125 -1.046875 -2.28125 -1.515625q-1.25 -0.46875 -2.6875 -0.46875q-1.515625 0 -2.8125076 0.515625q-1.296875 0.515625 -2.265625 1.46875q-0.953125 0.9375 -1.5 2.203125q-0.53125 1.265625 -0.53125 2.765625q0 1.515625 0.53125 2.78125q0.546875 1.25 1.5 2.203125q0.96875 0.953125 2.265625 1.46875q1.2968826 0.515625 2.8125076 0.515625q1.4375 0 2.6875 -0.484375q1.25 -0.484375 2.28125 -1.53125l1.125 1.125q-1.109375 1.21875 -2.71875 1.84375q-1.609375 0.625 -3.453125 0.625zm14.188324 -0.015625q-1.828125 0 -3.28125 -0.828125q-1.453125 -0.828125 -2.296875 -2.28125q-0.828125 -1.453125 -0.828125 -3.328125q0 -1.890625 0.828125 -3.328125q0.84375 -1.453125 2.28125 -2.265625q1.4375 -0.8125 3.296875 -0.8125q1.875 0 3.3125 0.8125q1.453125 0.8125 2.28125 2.265625q0.828125 1.4375 0.828125 3.328125q0 1.875 -0.828125 3.328125q-0.828125 1.453125 -2.296875 2.28125q-1.453125 0.828125 -3.296875 0.828125zm0 -1.515625q1.359375 0 2.40625 -0.609375q1.0625 -0.609375 1.671875 -1.71875q0.625 -1.125 0.625 -2.59375q0 -1.484375 -0.625 -2.59375q-0.609375 -1.109375 -1.671875 -1.71875q-1.046875 -0.609375 -2.390625 -0.609375q-1.34375 0 -2.40625 0.609375q-1.046875 0.609375 -1.671875 1.71875q-0.625 1.109375 -0.625 2.59375q0 1.46875 0.625 2.59375q0.625 1.109375 1.671875 1.71875q1.0625 0.609375 2.390625 0.609375zm9.907333 1.390625l0 -17.8125l1.703125 0l0 17.8125l-1.703125 0zm6.4559784 0l0 -17.8125l1.703125 0l0 17.8125l-1.703125 0zm14.346603 0l0 -2.78125l-0.0625 -0.453125l0 -4.65625q0 -1.609375 -0.90625 -2.46875q-0.890625 -0.875 -2.671875 -0.875q-1.21875 0 -2.328125 0.40625q-1.109375 0.40625 -1.875 1.078125l-0.765625 -1.265625q0.953125 -0.8125 2.296875 -1.25q1.34375 -0.453125 2.84375 -0.453125q2.4375 0 3.765625 1.21875q1.34375 1.203125 1.34375 3.671875l0 7.828125l-1.640625 0zm-4.34375 0.125q-1.40625 0 -2.453125 -0.46875q-1.046875 -0.46875 -1.609375 -1.296875q-0.546875 -0.828125 -0.546875 -1.90625q0 -0.984375 0.46875 -1.78125q0.46875 -0.8125 1.53125 -1.296875q1.078125 -0.5 2.875 -0.5l4.34375 0l0 1.265625l-4.296875 0q-1.8125 0 -2.53125 0.65625q-0.703125 0.640625 -0.703125 1.609375q0 1.078125 0.84375 1.734375q0.84375 0.640625 2.34375 0.640625q1.4375 0 2.484375 -0.65625q1.046875 -0.671875 1.53125 -1.921875l0.375 1.1875q-0.46875 1.234375 -1.65625 1.984375q-1.1875 0.75 -3.0 0.75zm14.597458 0q-1.78125 0 -2.75 -0.953125q-0.953125 -0.96875 -0.953125 -2.71875l0 -11.84375l1.71875 0l0 11.75q0 1.09375 0.5625 1.703125q0.5625 0.59375 1.609375 0.59375q1.140625 0 1.875 -0.640625l0.609375 1.21875q-0.515625 0.453125 -1.21875 0.671875q-0.703125 0.21875 -1.453125 0.21875zm-5.953125 -11.3125l0 -1.40625l7.796875 0l0 1.40625l-7.796875 0zm16.616104 11.3125q-1.96875 0 -3.46875 -0.828125q-1.484375 -0.828125 -2.328125 -2.28125q-0.828125 -1.453125 -0.828125 -3.328125q0 -1.875 0.796875 -3.3125q0.8125 -1.4375 2.203125 -2.265625q1.40625 -0.828125 3.15625 -0.828125q1.78125 0 3.15625 0.8125q1.390625 0.796875 2.171875 2.25q0.796875 1.453125 0.796875 3.34375q0 0.125 -0.015625 0.265625q0 0.125 0 0.265625l-10.96875 0l0 -1.28125l10.046875 0l-0.671875 0.515625q0 -1.375 -0.59375 -2.4375q-0.578125 -1.078125 -1.59375 -1.671875q-1.0 -0.59375 -2.328125 -0.59375q-1.296875 0 -2.328125 0.59375q-1.03125 0.59375 -1.609375 1.6875q-0.5625 1.078125 -0.5625 2.46875l0 0.265625q0 1.4375 0.625 2.53125q0.640625 1.09375 1.78125 1.703125q1.140625 0.609375 2.609375 0.609375q1.140625 0 2.140625 -0.40625q1.0 -0.40625 1.71875 -1.25l0.953125 1.109375q-0.828125 1.0 -2.09375 1.53125q-1.265625 0.53125 -2.765625 0.53125zm9.136581 -0.125l0 -12.59375l1.640625 0l0 3.421875l-0.171875 -0.59375q0.53125 -1.4375 1.765625 -2.1875q1.25 -0.765625 3.109375 -0.765625l0 1.65625q-0.109375 0 -0.203125 -0.015625q-0.09375 -0.015625 -0.1875 -0.015625q-1.984375 0 -3.125 1.21875q-1.125 1.21875 -1.125 3.4375l0 6.4375l-1.703125 0zm16.386597 0l0 -2.78125l-0.0625 -0.453125l0 -4.65625q0 -1.609375 -0.90625 -2.46875q-0.890625 -0.875 -2.671875 -0.875q-1.21875 0 -2.328125 0.40625q-1.109375 0.40625 -1.875 1.078125l-0.765625 -1.265625q0.953125 -0.8125 2.296875 -1.25q1.34375 -0.453125 2.84375 -0.453125q2.4375 0 3.765625 1.21875q1.34375 1.203125 1.34375 3.671875l0 7.828125l-1.640625 0zm-4.34375 0.125q-1.40625 0 -2.453125 -0.46875q-1.046875 -0.46875 -1.609375 -1.296875q-0.546875 -0.828125 -0.546875 -1.90625q0 -0.984375 0.46875 -1.78125q0.46875 -0.8125 1.53125 -1.296875q1.078125 -0.5 2.875 -0.5l4.34375 0l0 1.265625l-4.296875 0q-1.8125 0 -2.53125 0.65625q-0.703125 0.640625 -0.703125 1.609375q0 1.078125 0.84375 1.734375q0.84375 0.640625 2.34375 0.640625q1.4375 0 2.484375 -0.65625q1.046875 -0.671875 1.53125 -1.921875l0.375 1.1875q-0.46875 1.234375 -1.65625 1.984375q-1.1875 0.75 -3.0 0.75zm10.613083 -0.125l0 -17.8125l1.703125 0l0 17.8125l-1.703125 0z" fill-rule="nonzero"/><path fill="#a6bfa5" d="m138.04318 424.08987l0 -2.78125l-0.0625 -0.453125l0 -4.65625q0 -1.609375 -0.90625 -2.46875q-0.890625 -0.875 -2.671875 -0.875q-1.21875 0 -2.328125 0.40625q-1.109375 0.40625 -1.875 1.078125l-0.765625 -1.265625q0.953125 -0.8125 2.296875 -1.25q1.34375 -0.453125 2.84375 -0.453125q2.4375 0 3.765625 1.21875q1.34375 1.203125 1.34375 3.671875l0 7.828125l-1.640625 0zm-4.34375 0.125q-1.40625 0 -2.453125 -0.46875q-1.046875 -0.46875 -1.609375 -1.296875q-0.546875 -0.828125 -0.546875 -1.90625q0 -0.984375 0.46875 -1.78125q0.46875 -0.8125 1.53125 -1.296875q1.078125 -0.5 2.875 -0.5l4.34375 0l0 1.265625l-4.296875 0q-1.8125 0 -2.53125 0.65625q-0.703125 0.640625 -0.703125 1.609375q0 1.078125 0.84375 1.734375q0.84375 0.640625 2.34375 0.640625q1.4375 0 2.484375 -0.65625q1.046875 -0.671875 1.53125 -1.921875l0.375 1.1875q-0.46875 1.234375 -1.65625 1.984375q-1.1875 0.75 -3.0 0.75zm26.363083 -12.84375q1.53125 0 2.671875 0.59375q1.140625 0.578125 1.765625 1.78125q0.640625 1.203125 0.640625 3.03125l0 7.3125l-1.703125 0l0 -7.15625q0 -1.984375 -0.953125 -3.0q-0.9375 -1.03125 -2.671875 -1.03125q-1.296875 0 -2.25 0.546875q-0.9375 0.53125 -1.453125 1.5625q-0.515625 1.015625 -0.515625 2.453125l0 6.625l-1.703125 0l0 -7.15625q0 -1.984375 -0.96875 -3.0q-0.953125 -1.03125 -2.6875 -1.03125q-1.265625 0 -2.234375 0.546875q-0.953125 0.53125 -1.46875 1.5625q-0.515625 1.015625 -0.515625 2.453125l0 6.625l-1.703125 0l0 -12.59375l1.640625 0l0 3.40625l-0.265625 -0.609375q0.5625 -1.359375 1.84375 -2.140625q1.296875 -0.78125 3.046875 -0.78125q1.84375 0 3.140625 0.921875q1.296875 0.921875 1.6875 2.765625l-0.671875 -0.25q0.546875 -1.546875 1.953125 -2.484375q1.40625 -0.953125 3.375 -0.953125zm14.854553 12.84375q-1.828125 0 -3.28125 -0.828125q-1.453125 -0.828125 -2.296875 -2.28125q-0.828125 -1.453125 -0.828125 -3.328125q0 -1.890625 0.828125 -3.328125q0.84375 -1.453125 2.28125 -2.265625q1.4375 -0.8125 3.296875 -0.8125q1.875 0 3.3125 0.8125q1.453125 0.8125 2.28125 2.265625q0.828125 1.4375 0.828125 3.328125q0 1.875 -0.828125 3.328125q-0.828125 1.453125 -2.296875 2.28125q-1.453125 0.828125 -3.296875 0.828125zm0 -1.515625q1.359375 0 2.40625 -0.609375q1.0625 -0.609375 1.671875 -1.71875q0.625 -1.125 0.625 -2.59375q0 -1.484375 -0.625 -2.59375q-0.609375 -1.109375 -1.671875 -1.71875q-1.046875 -0.609375 -2.390625 -0.609375q-1.34375 0 -2.40625 0.609375q-1.046875 0.609375 -1.671875 1.71875q-0.625 1.109375 -0.625 2.59375q0 1.46875 0.625 2.59375q0.625 1.109375 1.671875 1.71875q1.0625 0.609375 2.390625 0.609375zm15.110458 1.515625q-1.609375 0 -2.8125 -0.59375q-1.1875 -0.609375 -1.859375 -1.8125q-0.65625 -1.203125 -0.65625 -3.0l0 -7.3125l1.703125 0l0 7.125q0 2.015625 1.0 3.03125q1.0 1.015625 2.796875 1.015625q1.328125 0 2.296875 -0.53125q0.96875 -0.546875 1.484375 -1.578125q0.515625 -1.03125 0.515625 -2.46875l0 -6.59375l1.703125 0l0 12.59375l-1.625 0l0 -3.453125l0.265625 0.625q-0.609375 1.390625 -1.875 2.171875q-1.25 0.78125 -2.9375 0.78125zm17.362335 -12.84375q1.53125 0 2.6875 0.59375q1.171875 0.578125 1.828125 1.78125q0.65625 1.203125 0.65625 3.03125l0 7.3125l-1.703125 0l0 -7.15625q0 -1.984375 -1.0 -3.0q-0.984375 -1.03125 -2.78125 -1.03125q-1.34375 0 -2.34375 0.546875q-1.0 0.53125 -1.546875 1.5625q-0.53125 1.015625 -0.53125 2.453125l0 6.625l-1.703125 0l0 -12.59375l1.640625 0l0 3.453125l-0.265625 -0.65625q0.59375 -1.359375 1.90625 -2.140625q1.328125 -0.78125 3.15625 -0.78125zm13.770828 12.84375q-1.78125 0 -2.75 -0.953125q-0.953125 -0.96875 -0.953125 -2.71875l0 -11.84375l1.71875 0l0 11.75q0 1.09375 0.5625 1.703125q0.5625 0.59375 1.609375 0.59375q1.140625 0 1.875 -0.640625l0.609375 1.21875q-0.515625 0.453125 -1.21875 0.671875q-0.703125 0.21875 -1.453125 0.21875zm-5.953125 -11.3125l0 -1.40625l7.796875 0l0 1.40625l-7.796875 0z" fill-rule="nonzero"/><path fill="#a6bfa5" d="m374.4712 388.68988l0 -0.890625l5.046875 -4.9375q0.6875 -0.671875 1.03125 -1.171875q0.359375 -0.515625 0.46875 -0.96875q0.125 -0.453125 0.125 -0.84375q0 -1.0625 -0.71875 -1.671875q-0.71875 -0.609375 -2.125 -0.609375q-1.0625 0 -1.890625 0.328125q-0.828125 0.328125 -1.40625 1.03125l-0.890625 -0.765625q0.703125 -0.828125 1.8125 -1.28125q1.109375 -0.453125 2.484375 -0.453125q1.234375 0 2.125 0.390625q0.90625 0.390625 1.390625 1.140625q0.5 0.734375 0.5 1.75q0 0.578125 -0.171875 1.15625q-0.15625 0.578125 -0.578125 1.21875q-0.421875 0.625 -1.234375 1.421875l-4.625 4.53125l-0.359375 -0.484375l7.53125 0l0 1.109375l-8.515625 0z" fill-rule="nonzero"/><path fill="#a6bfa5" d="m581.2783 388.79926q-1.40625 0 -2.5 -0.734375q-1.078125 -0.75 -1.703125 -2.125q-0.625 -1.375 -0.625 -3.3125q0 -1.9375 0.625 -3.3125q0.625 -1.390625 1.703125 -2.125q1.09375 -0.734375 2.5 -0.734375q1.40625 0 2.5 0.734375q1.09375 0.734375 1.71875 2.125q0.640625 1.375 0.640625 3.3125q0 1.9375 -0.640625 3.3125q-0.625 1.375 -1.71875 2.125q-1.09375 0.734375 -2.5 0.734375zm0 -1.15625q1.078125 0 1.875 -0.578125q0.796875 -0.578125 1.25 -1.6875q0.453125 -1.125 0.453125 -2.75q0 -1.625 -0.453125 -2.734375q-0.453125 -1.125 -1.25 -1.703125q-0.796875 -0.59375 -1.875 -0.59375q-1.03125 0 -1.859375 0.59375q-0.8125 0.578125 -1.265625 1.703125q-0.4375 1.109375 -0.4375 2.734375q0 1.625 0.4375 2.75q0.453125 1.109375 1.265625 1.6875q0.828125 0.578125 1.859375 0.578125z" fill-rule="nonzero"/><path fill="#a6bfa5" d="m783.8374 388.79926q-1.40625 0 -2.5 -0.734375q-1.078125 -0.75 -1.703125 -2.125q-0.625 -1.375 -0.625 -3.3125q0 -1.9375 0.625 -3.3125q0.625 -1.390625 1.703125 -2.125q1.09375 -0.734375 2.5 -0.734375q1.40625 0 2.5 0.734375q1.09375 0.734375 1.71875 2.125q0.640625 1.375 0.640625 3.3125q0 1.9375 -0.640625 3.3125q-0.625 1.375 -1.71875 2.125q-1.09375 0.734375 -2.5 0.734375zm0 -1.15625q1.078125 0 1.875 -0.578125q0.796875 -0.578125 1.25 -1.6875q0.453125 -1.125 0.453125 -2.75q0 -1.625 -0.453125 -2.734375q-0.453125 -1.125 -1.25 -1.703125q-0.796875 -0.59375 -1.875 -0.59375q-1.03125 0 -1.859375 0.59375q-0.8125 0.578125 -1.265625 1.703125q-0.4375 1.109375 -0.4375 2.734375q0 1.625 0.4375 2.75q0.453125 1.109375 1.265625 1.6875q0.828125 0.578125 1.859375 0.578125z" fill-rule="nonzero"/><path fill="#a6bfa5" d="m97.71603 479.69617l0 -16.796875l1.78125 0l0 15.265625l9.40625 0l0 1.53125l-11.1875 0zm18.725204 0.125q-1.828125 0 -3.28125 -0.828125q-1.453125 -0.828125 -2.296875 -2.28125q-0.828125 -1.453125 -0.828125 -3.328125q0 -1.890625 0.828125 -3.328125q0.84375 -1.453125 2.28125 -2.265625q1.4375 -0.8125 3.296875 -0.8125q1.875 0 3.3125 0.8125q1.453125 0.8125 2.28125 2.265625q0.828125 1.4375 0.828125 3.328125q0 1.875 -0.828125 3.328125q-0.828125 1.453125 -2.296875 2.28125q-1.453125 0.828125 -3.296875 0.828125zm0 -1.515625q1.359375 0 2.40625 -0.609375q1.0625 -0.609375 1.671875 -1.71875q0.625 -1.125 0.625 -2.59375q0 -1.484375 -0.625 -2.59375q-0.609375 -1.109375 -1.671875 -1.71875q-1.046875 -0.609375 -2.390625 -0.609375q-1.34375 0 -2.40625 0.609375q-1.046875 0.609375 -1.671875 1.71875q-0.625 1.109375 -0.625 2.59375q0 1.46875 0.625 2.59375q0.625 1.109375 1.671875 1.71875q1.0625 0.609375 2.390625 0.609375zm17.72596 1.390625l0 -2.78125l-0.0625 -0.453125l0 -4.65625q0 -1.609375 -0.90625 -2.46875q-0.890625 -0.875 -2.671875 -0.875q-1.21875 0 -2.328125 0.40625q-1.1093826 0.40625 -1.8750076 1.078125l-0.765625 -1.265625q0.953125 -0.8125 2.296875 -1.25q1.3437576 -0.453125 2.8437576 -0.453125q2.4375 0 3.765625 1.21875q1.34375 1.203125 1.34375 3.671875l0 7.828125l-1.640625 0zm-4.34375 0.125q-1.40625 0 -2.4531326 -0.46875q-1.046875 -0.46875 -1.609375 -1.296875q-0.546875 -0.828125 -0.546875 -1.90625q0 -0.984375 0.46875 -1.78125q0.46875 -0.8125 1.53125 -1.296875q1.0781326 -0.5 2.8750076 -0.5l4.34375 0l0 1.265625l-4.296875 0q-1.8125 0 -2.5312576 0.65625q-0.703125 0.640625 -0.703125 1.609375q0 1.078125 0.84375 1.734375q0.8437576 0.640625 2.3437576 0.640625q1.4375 0 2.484375 -0.65625q1.046875 -0.671875 1.53125 -1.921875l0.375 1.1875q-0.46875 1.234375 -1.65625 1.984375q-1.1875 0.75 -3.0 0.75zm17.050583 -12.84375q1.53125 0 2.6875 0.59375q1.171875 0.578125 1.828125 1.78125q0.65625 1.203125 0.65625 3.03125l0 7.3125l-1.703125 0l0 -7.15625q0 -1.984375 -1.0 -3.0q-0.984375 -1.03125 -2.78125 -1.03125q-1.34375 0 -2.34375 0.546875q-1.0 0.53125 -1.546875 1.5625q-0.53125 1.015625 -0.53125 2.453125l0 6.625l-1.703125 0l0 -12.59375l1.640625 0l0 3.453125l-0.265625 -0.65625q0.59375 -1.359375 1.90625 -2.140625q1.328125 -0.78125 3.15625 -0.78125zm23.965057 12.71875l0 -2.78125l-0.0625 -0.453125l0 -4.65625q0 -1.609375 -0.90625 -2.46875q-0.890625 -0.875 -2.671875 -0.875q-1.21875 0 -2.328125 0.40625q-1.109375 0.40625 -1.875 1.078125l-0.765625 -1.265625q0.953125 -0.8125 2.296875 -1.25q1.34375 -0.453125 2.84375 -0.453125q2.4375 0 3.765625 1.21875q1.34375 1.203125 1.34375 3.671875l0 7.828125l-1.640625 0zm-4.34375 0.125q-1.40625 0 -2.453125 -0.46875q-1.046875 -0.46875 -1.609375 -1.296875q-0.546875 -0.828125 -0.546875 -1.90625q0 -0.984375 0.46875 -1.78125q0.46875 -0.8125 1.53125 -1.296875q1.078125 -0.5 2.875 -0.5l4.34375 0l0 1.265625l-4.296875 0q-1.8125 0 -2.53125 0.65625q-0.703125 0.640625 -0.703125 1.609375q0 1.078125 0.84375 1.734375q0.84375 0.640625 2.34375 0.640625q1.4375 0 2.484375 -0.65625q1.046875 -0.671875 1.53125 -1.921875l0.375 1.1875q-0.46875 1.234375 -1.65625 1.984375q-1.1875 0.75 -3.0 0.75zm26.363083 -12.84375q1.53125 0 2.671875 0.59375q1.140625 0.578125 1.765625 1.78125q0.640625 1.203125 0.640625 3.03125l0 7.3125l-1.703125 0l0 -7.15625q0 -1.984375 -0.953125 -3.0q-0.9375 -1.03125 -2.671875 -1.03125q-1.296875 0 -2.25 0.546875q-0.9375 0.53125 -1.453125 1.5625q-0.515625 1.015625 -0.515625 2.453125l0 6.625l-1.703125 0l0 -7.15625q0 -1.984375 -0.96875 -3.0q-0.953125 -1.03125 -2.6875 -1.03125q-1.265625 0 -2.234375 0.546875q-0.953125 0.53125 -1.46875 1.5625q-0.515625 1.015625 -0.515625 2.453125l0 6.625l-1.703125 0l0 -12.59375l1.640625 0l0 3.40625l-0.265625 -0.609375q0.5625 -1.359375 1.84375 -2.140625q1.296875 -0.78125 3.046875 -0.78125q1.84375 0 3.140625 0.921875q1.296875 0.921875 1.6875 2.765625l-0.671875 -0.25q0.546875 -1.546875 1.953125 -2.484375q1.40625 -0.953125 3.375 -0.953125zm14.854553 12.84375q-1.828125 0 -3.28125 -0.828125q-1.453125 -0.828125 -2.296875 -2.28125q-0.828125 -1.453125 -0.828125 -3.328125q0 -1.890625 0.828125 -3.328125q0.84375 -1.453125 2.28125 -2.265625q1.4375 -0.8125 3.296875 -0.8125q1.875 0 3.3125 0.8125q1.453125 0.8125 2.28125 2.265625q0.828125 1.4375 0.828125 3.328125q0 1.875 -0.828125 3.328125q-0.828125 1.453125 -2.296875 2.28125q-1.453125 0.828125 -3.296875 0.828125zm0 -1.515625q1.359375 0 2.40625 -0.609375q1.0625 -0.609375 1.671875 -1.71875q0.625 -1.125 0.625 -2.59375q0 -1.484375 -0.625 -2.59375q-0.609375 -1.109375 -1.671875 -1.71875q-1.046875 -0.609375 -2.390625 -0.609375q-1.34375 0 -2.40625 0.609375q-1.046875 0.609375 -1.671875 1.71875q-0.625 1.109375 -0.625 2.59375q0 1.46875 0.625 2.59375q0.625 1.109375 1.671875 1.71875q1.0625 0.609375 2.390625 0.609375zm15.110458 1.515625q-1.609375 0 -2.8125 -0.59375q-1.1875 -0.609375 -1.859375 -1.8125q-0.65625 -1.203125 -0.65625 -3.0l0 -7.3125l1.703125 0l0 7.125q0 2.015625 1.0 3.03125q1.0 1.015625 2.796875 1.015625q1.328125 0 2.296875 -0.53125q0.96875 -0.546875 1.484375 -1.578125q0.515625 -1.03125 0.515625 -2.46875l0 -6.59375l1.703125 0l0 12.59375l-1.625 0l0 -3.453125l0.265625 0.625q-0.609375 1.390625 -1.875 2.171875q-1.25 0.78125 -2.9375 0.78125zm17.362335 -12.84375q1.53125 0 2.6875 0.59375q1.171875 0.578125 1.828125 1.78125q0.65625 1.203125 0.65625 3.03125l0 7.3125l-1.703125 0l0 -7.15625q0 -1.984375 -1.0 -3.0q-0.984375 -1.03125 -2.78125 -1.03125q-1.34375 0 -2.34375 0.546875q-1.0 0.53125 -1.546875 1.5625q-0.53125 1.015625 -0.53125 2.453125l0 6.625l-1.703125 0l0 -12.59375l1.640625 0l0 3.453125l-0.265625 -0.65625q0.59375 -1.359375 1.90625 -2.140625q1.328125 -0.78125 3.15625 -0.78125zm13.770828 12.84375q-1.78125 0 -2.75 -0.953125q-0.953125 -0.96875 -0.953125 -2.71875l0 -11.84375l1.71875 0l0 11.75q0 1.09375 0.5625 1.703125q0.5625 0.59375 1.609375 0.59375q1.140625 0 1.8749847 -0.640625l0.609375 1.21875q-0.515625 0.453125 -1.2187347 0.671875q-0.703125 0.21875 -1.453125 0.21875zm-5.953125 -11.3125l0 -1.40625l7.796875 0l0 1.40625l-7.796875 0z" fill-rule="nonzero"/><path fill="#a6bfa5" d="m344.53424 461.0618q1.625 0 2.734375 0.71875q1.109375 0.71875 1.671875 2.078125q0.578125 1.34375 0.578125 3.265625q0 2.046875 -0.703125 3.453125q-0.703125 1.40625 -1.953125 2.125q-1.25 0.703125 -2.890625 0.703125q-0.8125 0 -1.5625 -0.15625q-0.734375 -0.15625 -1.3125 -0.5l0.5 -1.015625q0.46875 0.3125 1.078125 0.453125q0.625 0.125 1.28125 0.125q1.953125 0 3.125 -1.25q1.171875 -1.25 1.171875 -3.71875q0 -0.40625 -0.046875 -0.953125q-0.046875 -0.5625 -0.203125 -1.109375l0.4375 0.328125q-0.171875 0.890625 -0.734375 1.53125q-0.5625 0.625 -1.390625 0.953125q-0.828125 0.328125 -1.828125 0.328125q-1.1875 0 -2.125 -0.4375q-0.921875 -0.453125 -1.453125 -1.265625q-0.515625 -0.828125 -0.515625 -1.9375q0 -1.140625 0.53125 -1.96875q0.546875 -0.828125 1.484375 -1.28125q0.953125 -0.46875 2.125 -0.46875zm0.0625 1.0625q-0.875 0 -1.546875 0.328125q-0.65625 0.3125 -1.046875 0.90625q-0.375 0.578125 -0.375 1.390625q0 1.203125 0.8125 1.921875q0.828125 0.703125 2.234375 0.703125q0.9375 0 1.640625 -0.34375q0.703125 -0.359375 1.09375 -0.953125q0.390625 -0.609375 0.390625 -1.359375q0 -0.671875 -0.375 -1.265625q-0.359375 -0.59375 -1.078125 -0.953125q-0.703125 -0.375 -1.75 -0.375zm11.552765 11.28125q-1.40625 0 -2.5 -0.734375q-1.078125 -0.75 -1.703125 -2.125q-0.625 -1.375 -0.625 -3.3125q0 -1.9375 0.625 -3.3125q0.625 -1.390625 1.703125 -2.125q1.09375 -0.734375 2.5 -0.734375q1.40625 0 2.5 0.734375q1.09375 0.734375 1.71875 2.125q0.640625 1.375 0.640625 3.3125q0 1.9375 -0.640625 3.3125q-0.625 1.375 -1.71875 2.125q-1.09375 0.734375 -2.5 0.734375zm0 -1.15625q1.078125 0 1.875 -0.578125q0.796875 -0.578125 1.25 -1.6875q0.453125 -1.125 0.453125 -2.75q0 -1.625 -0.453125 -2.734375q-0.453125 -1.125 -1.25 -1.703125q-0.796875 -0.59375 -1.875 -0.59375q-1.03125 0 -1.859375 0.59375q-0.8125 0.578125 -1.265625 1.703125q-0.4375 1.109375 -0.4375 2.734375q0 1.625 0.4375 2.75q0.453125 1.109375 1.265625 1.6875q0.828125 0.578125 1.859375 0.578125zm17.136108 1.15625q-2.3125 0 -3.65625 -1.328125q-1.328125 -1.34375 -1.328125 -3.96875l0 -6.9375l1.28125 0l0 6.890625q0 2.15625 0.96875 3.171875q0.96875 1.015625 2.734375 1.015625q1.78125 0 2.75 -1.015625q0.984375 -1.015625 0.984375 -3.171875l0 -6.890625l1.234375 0l0 6.9375q0 2.625 -1.328125 3.96875q-1.3125 1.328125 -3.640625 1.328125zm12.17691 0q-1.34375 0 -2.59375 -0.4375q-1.234375 -0.453125 -1.90625 -1.140625l0.5 -0.984375q0.640625 0.609375 1.71875 1.046875q1.09375 0.421875 2.28125 0.421875q1.15625 0 1.875 -0.28125q0.71875 -0.296875 1.046875 -0.78125q0.34375 -0.484375 0.34375 -1.078125q0 -0.703125 -0.40625 -1.140625q-0.40625 -0.4375 -1.0625 -0.6875q-0.65625 -0.25 -1.453125 -0.4375q-0.796875 -0.1875 -1.609375 -0.40625q-0.796875 -0.21875 -1.46875 -0.578125q-0.65625 -0.359375 -1.0625 -0.953125q-0.40625 -0.609375 -0.40625 -1.578125q0 -0.90625 0.46875 -1.65625q0.484375 -0.75 1.46875 -1.203125q0.984375 -0.46875 2.53125 -0.46875q1.03125 0 2.03125 0.296875q1.0 0.28125 1.734375 0.78125l-0.4375 1.015625q-0.78125 -0.515625 -1.65625 -0.75q-0.875 -0.25 -1.6875 -0.25q-1.09375 0 -1.8125 0.296875q-0.703125 0.296875 -1.046875 0.796875q-0.328125 0.484375 -0.328125 1.109375q0 0.703125 0.40625 1.140625q0.40625 0.4375 1.0625 0.6875q0.671875 0.234375 1.46875 0.421875q0.796875 0.1875 1.578125 0.421875q0.796875 0.21875 1.46875 0.578125q0.671875 0.34375 1.078125 0.9375q0.40625 0.59375 0.40625 1.546875q0 0.875 -0.484375 1.640625q-0.484375 0.75 -1.484375 1.21875q-1.0 0.453125 -2.5625 0.453125zm7.3129883 -0.109375l0 -12.125l4.9375 0q1.953125 0 3.40625 0.765625q1.46875 0.765625 2.28125 2.140625q0.8125 1.375 0.8125 3.15625q0 1.78125 -0.8125 3.15625q-0.8125 1.359375 -2.28125 2.140625q-1.453125 0.765625 -3.40625 0.765625l-4.9375 0zm1.28125 -1.109375l3.59375 0q1.609375 0 2.796875 -0.625q1.1875 -0.640625 1.84375 -1.75q0.65625 -1.125 0.65625 -2.578125q0 -1.46875 -0.65625 -2.578125q-0.65625 -1.109375 -1.84375 -1.734375q-1.1875 -0.640625 -2.796875 -0.640625l-3.59375 0l0 9.90625zm18.312958 1.21875q-1.375 0 -2.546875 -0.453125q-1.15625 -0.46875 -2.0 -1.296875q-0.84375 -0.84375 -1.328125 -1.96875q-0.46875 -1.125 -0.46875 -2.453125q0 -1.34375 0.46875 -2.46875q0.484375 -1.125 1.328125 -1.953125q0.859375 -0.828125 2.015625 -1.28125q1.171875 -0.46875 2.546875 -0.46875q1.3125 0 2.46875 0.453125q1.171875 0.4375 1.96875 1.3125l-0.828125 0.8125q-0.734375 -0.765625 -1.640625 -1.09375q-0.90625 -0.34375 -1.9375 -0.34375q-1.09375 0 -2.03125 0.375q-0.9375 0.375 -1.625 1.0625q-0.6875 0.6875 -1.078125 1.59375q-0.390625 0.90625 -0.390625 2.0q0 1.09375 0.390625 2.0q0.390625 0.90625 1.078125 1.59375q0.6875 0.6875 1.625 1.0625q0.9375 0.359375 2.03125 0.359375q1.03125 0 1.9375 -0.34375q0.90625 -0.34375 1.640625 -1.109375l0.828125 0.8125q-0.796875 0.890625 -1.96875 1.34375q-1.15625 0.453125 -2.484375 0.453125z" fill-rule="nonzero"/><path fill="#a6bfa5" d="m581.2783 473.40555q-1.40625 0 -2.5 -0.734375q-1.078125 -0.75 -1.703125 -2.125q-0.625 -1.375 -0.625 -3.3125q0 -1.9375 0.625 -3.3125q0.625 -1.390625 1.703125 -2.125q1.09375 -0.734375 2.5 -0.734375q1.40625 0 2.5 0.734375q1.09375 0.734375 1.71875 2.125q0.640625 1.375 0.640625 3.3125q0 1.9375 -0.640625 3.3125q-0.625 1.375 -1.71875 2.125q-1.09375 0.734375 -2.5 0.734375zm0 -1.15625q1.078125 0 1.875 -0.578125q0.796875 -0.578125 1.25 -1.6875q0.453125 -1.125 0.453125 -2.75q0 -1.625 -0.453125 -2.734375q-0.453125 -1.125 -1.25 -1.703125q-0.796875 -0.59375 -1.875 -0.59375q-1.03125 0 -1.859375 0.59375q-0.8125 0.578125 -1.265625 1.703125q-0.4375 1.109375 -0.4375 2.734375q0 1.625 0.4375 2.75q0.453125 1.109375 1.265625 1.6875q0.828125 0.578125 1.859375 0.578125z" fill-rule="nonzero"/><path fill="#a6bfa5" d="m783.8374 473.40555q-1.40625 0 -2.5 -0.734375q-1.078125 -0.75 -1.703125 -2.125q-0.625 -1.375 -0.625 -3.3125q0 -1.9375 0.625 -3.3125q0.625 -1.390625 1.703125 -2.125q1.09375 -0.734375 2.5 -0.734375q1.40625 0 2.5 0.734375q1.09375 0.734375 1.71875 2.125q0.640625 1.375 0.640625 3.3125q0 1.9375 -0.640625 3.3125q-0.625 1.375 -1.71875 2.125q-1.09375 0.734375 -2.5 0.734375zm0 -1.15625q1.078125 0 1.875 -0.578125q0.796875 -0.578125 1.25 -1.6875q0.453125 -1.125 0.453125 -2.75q0 -1.625 -0.453125 -2.734375q-0.453125 -1.125 -1.25 -1.703125q-0.796875 -0.59375 -1.875 -0.59375q-1.03125 0 -1.859375 0.59375q-0.8125 0.578125 -1.265625 1.703125q-0.4375 1.109375 -0.4375 2.734375q0 1.625 0.4375 2.75q0.453125 1.109375 1.265625 1.6875q0.828125 0.578125 1.859375 0.578125z" fill-rule="nonzero"/><path fill="#000000" fill-opacity="0.0" d="m70.07874 91.2l819.8425 0l0 67.2126l-819.8425 0z" fill-rule="evenodd"/><path fill="#000000" d="m401.73923 108.60625l0 0.65625q-1.125 0.046875 -1.71875 0.265625q-0.578125 0.203125 -0.78125 0.796875q-0.1875 0.578125 -0.1875 1.8125l0 16.921875q0 1.046875 0.140625 1.546875q0.15625 0.5 0.59375 0.671875q0.453125 0.15625 1.359375 0.15625l1.640625 0q1.125 0 2.125 -0.53125q1.0 -0.53125 1.796875 -1.515625q0.796875 -0.984375 1.328125 -2.34375q0.546875 -1.375 0.8125 -3.046875l0.765625 0q-0.109375 1.140625 -0.109375 2.9375q0 0.765625 0.03125 2.234375q0.046875 1.46875 0.203125 3.03125q-1.6875 -0.0625 -3.828125 -0.078125q-2.125 -0.015625 -3.796875 -0.015625q-0.828125 0 -2.140625 0q-1.296875 0 -2.796875 0.015625q-1.5 0.015625 -3.03125 0.03125q-1.53125 0.015625 -2.890625 0.046875l0 -0.671875q1.0625 -0.0625 1.59375 -0.265625q0.53125 -0.203125 0.703125 -0.796875q0.1875 -0.59375 0.1875 -1.796875l0 -16.53125q0 -1.234375 -0.1875 -1.8125q-0.171875 -0.59375 -0.71875 -0.796875q-0.546875 -0.21875 -1.578125 -0.265625l0 -0.65625q0.828125 0.03125 2.234375 0.0625q1.421875 0.03125 3.03125 0.03125q1.453125 0 2.875 -0.03125q1.421875 -0.03125 2.34375 -0.0625zm13.863434 -2.234375q1.40625 0 2.21875 0.6875q0.8125 0.671875 0.8125 1.875q0 1.203125 -0.8125 1.890625q-0.8125 0.671875 -2.21875 0.671875q-1.390625 0 -2.21875 -0.671875q-0.8125 -0.6875 -0.8125 -1.890625q0 -1.203125 0.8125 -1.875q0.828125 -0.6875 2.21875 -0.6875zm2.609375 8.234375l0 14.5q0 1.390625 0.484375 1.890625q0.484375 0.5 1.640625 0.5l0 0.703125q-0.59375 -0.03125 -1.859375 -0.078125q-1.265625 -0.0625 -2.5625 -0.0625q-1.3125 0 -2.640625 0.0625q-1.328125 0.046875 -2.0 0.078125l0 -0.703125q1.171875 0 1.65625 -0.5q0.484375 -0.5 0.484375 -1.890625l0 -10.5q0 -1.5 -0.453125 -2.21875q-0.453125 -0.71875 -1.6875 -0.71875l0 -0.703125q1.0625 0.109375 2.0625 0.109375q1.40625 0 2.625 -0.109375q1.21875 -0.125 2.25 -0.359375zm11.295227 -0.109375q1.5625 0 2.6875 0.421875q1.140625 0.421875 1.984375 1.546875l-0.5 0.171875q-0.5 -0.765625 -1.265625 -1.09375q-0.765625 -0.34375 -1.640625 -0.34375q-1.734375 0 -2.640625 2.078125q-0.890625 2.0625 -0.890625 6.296875q0 2.828125 0.390625 4.515625q0.40625 1.671875 1.125 2.40625q0.71875 0.734375 1.6875 0.734375q1.09375 0 2.0 -0.96875q0.921875 -0.96875 1.0 -2.625l0.15625 1.15625q-0.5 1.90625 -1.671875 2.890625q-1.15625 0.984375 -2.890625 0.984375q-1.890625 0 -3.453125 -0.96875q-1.546875 -0.96875 -2.46875 -2.984375q-0.90625 -2.015625 -0.90625 -5.21875q0 -3.03125 0.921875 -5.015625q0.9375 -1.984375 2.59375 -2.984375q1.65625 -1.0 3.78125 -1.0zm8.359375 -0.0625l0.5 0.265625q-0.125 0.4375 -0.1875 0.921875q-0.046875 0.484375 -0.046875 0.984375l0 18.65625q0 1.34375 0.453125 1.796875q0.453125 0.46875 1.546875 0.46875l0 0.703125q-0.59375 -0.03125 -1.765625 -0.078125q-1.15625 -0.046875 -2.421875 -0.046875q-1.671875 0 -3.203125 0.046875q-1.53125 0.046875 -2.40625 0.078125l0 -0.703125q1.4375 0 2.21875 -0.515625q0.78125 -0.515625 0.78125 -2.078125l0 -19.09375q0.875 0.0625 1.734375 -0.09375q0.875 -0.171875 1.625 -0.515625q0.75 -0.359375 1.171875 -0.796875zm19.996918 0.171875l0 13.96875q0 1.484375 0.46875 2.203125q0.46875 0.71875 1.671875 0.71875l0 0.703125q-1.03125 -0.09375 -2.0625 -0.09375q-1.40625 0 -2.609375 0.09375q-1.1875 0.09375 -2.265625 0.359375l0 -3.0q-0.796875 1.671875 -2.21875 2.390625q-1.40625 0.71875 -3.140625 0.71875q-1.40625 0 -2.28125 -0.375q-0.859375 -0.359375 -1.359375 -0.921875q-0.5625 -0.640625 -0.796875 -1.671875q-0.234375 -1.03125 -0.234375 -2.671875l0 -8.421875q0 -1.5 -0.453125 -2.21875q-0.4375 -0.71875 -1.671875 -0.71875l0 -0.703125q1.0625 0.109375 2.0625 0.109375q1.40625 0 2.609375 -0.109375q1.21875 -0.125 2.25 -0.359375l0 13.796875q0 0.828125 0.15625 1.46875q0.15625 0.625 0.578125 0.984375q0.4375 0.34375 1.265625 0.34375q0.90625 0 1.625 -0.5q0.71875 -0.5 1.15625 -1.375q0.453125 -0.890625 0.453125 -1.984375l0 -8.734375q0 -1.5 -0.453125 -2.21875q-0.4375 -0.71875 -1.671875 -0.71875l0 -0.703125q1.0625 0.109375 2.0625 0.109375q1.40625 0 2.609375 -0.109375q1.21875 -0.125 2.25 -0.359375zm7.931183 -8.234375q1.40625 0 2.21875 0.6875q0.8125 0.671875 0.8125 1.875q0 1.203125 -0.8125 1.890625q-0.8125 0.671875 -2.21875 0.671875q-1.390625 0 -2.21875 -0.671875q-0.8125 -0.6875 -0.8125 -1.890625q0 -1.203125 0.8125 -1.875q0.828125 -0.6875 2.21875 -0.6875zm2.609375 8.234375l0 14.5q0 1.390625 0.484375 1.890625q0.484375 0.5 1.640625 0.5l0 0.703125q-0.59375 -0.03125 -1.859375 -0.078125q-1.265625 -0.0625 -2.5625 -0.0625q-1.3125 0 -2.640625 0.0625q-1.328125 0.046875 -2.0 0.078125l0 -0.703125q1.171875 0 1.65625 -0.5q0.484375 -0.5 0.484375 -1.890625l0 -10.5q0 -1.5 -0.453125 -2.21875q-0.453125 -0.71875 -1.6875 -0.71875l0 -0.703125q1.0625 0.109375 2.0625 0.109375q1.40625 0 2.625 -0.109375q1.21875 -0.125 2.25 -0.359375zm19.967102 -8.5l0 22.421875q0 1.5 0.453125 2.21875q0.46875 0.71875 1.671875 0.71875l0 0.703125q-1.03125 -0.109375 -2.0625 -0.109375q-1.40625 0 -2.625 0.109375q-1.203125 0.09375 -2.25 0.359375l0 -22.421875q0 -1.5 -0.453125 -2.21875q-0.4375 -0.71875 -1.671875 -0.71875l0 -0.703125q1.0625 0.109375 2.0625 0.109375q1.375 0 2.609375 -0.109375q1.234375 -0.125 2.265625 -0.359375zm-8.5 8.390625q1.46875 0 2.578125 0.484375q1.109375 0.484375 1.75 1.625l-0.40625 0.359375q-0.421875 -0.796875 -1.140625 -1.140625q-0.71875 -0.359375 -1.515625 -0.359375q-1.703125 0 -2.703125 1.984375q-1.0 1.984375 -0.96875 6.125q0 2.828125 0.375 4.515625q0.390625 1.671875 1.109375 2.40625q0.71875 0.734375 1.65625 0.734375q1.125 0 2.015625 -0.890625q0.90625 -0.90625 0.984375 -2.4375l0.15625 1.15625q-0.5 1.78125 -1.625 2.703125q-1.109375 0.90625 -2.90625 0.90625q-1.96875 0 -3.515625 -0.96875q-1.546875 -0.96875 -2.421875 -2.984375q-0.859375 -2.015625 -0.859375 -5.21875q0 -3.03125 0.96875 -5.015625q0.96875 -1.984375 2.640625 -2.984375q1.6875 -1.0 3.828125 -1.0zm16.6333 17.9375q-1.5 0 -2.5 -0.5625q-1.0 -0.578125 -1.46875 -1.515625q-0.46875 -0.953125 -0.46875 -2.09375q0 -1.421875 0.640625 -2.328125q0.65625 -0.90625 1.6875 -1.46875q1.03125 -0.5625 2.171875 -0.921875q1.15625 -0.375 2.203125 -0.71875q1.0625 -0.359375 1.703125 -0.84375q0.65625 -0.484375 0.65625 -1.25l0 -2.59375q0 -0.875 -0.28125 -1.546875q-0.28125 -0.6875 -0.875 -1.046875q-0.578125 -0.375 -1.515625 -0.375q-0.65625 0 -1.328125 0.1875q-0.671875 0.1875 -1.09375 0.609375q0.921875 0.34375 1.4375 1.03125q0.53125 0.671875 0.53125 1.53125q0 1.140625 -0.796875 1.8125q-0.78125 0.65625 -1.84375 0.65625q-1.203125 0 -1.828125 -0.75q-0.609375 -0.75 -0.609375 -1.8125q0 -0.96875 0.484375 -1.59375q0.484375 -0.640625 1.359375 -1.203125q0.921875 -0.53125 2.234375 -0.828125q1.328125 -0.3125 2.859375 -0.3125q1.53125 0 2.765625 0.328125q1.234375 0.3125 2.0625 1.140625q0.765625 0.765625 1.0 1.890625q0.234375 1.109375 0.234375 2.8125l0 9.0625q0 0.828125 0.171875 1.15625q0.171875 0.3125 0.5625 0.3125q0.296875 0 0.578125 -0.15625q0.296875 -0.171875 0.625 -0.40625l0.328125 0.5625q-0.703125 0.59375 -1.625 0.921875q-0.90625 0.3125 -2.03125 0.3125q-1.234375 0 -1.96875 -0.34375q-0.734375 -0.359375 -1.0625 -0.953125q-0.3125 -0.609375 -0.3125 -1.40625q-0.796875 1.265625 -1.9375 1.984375q-1.125 0.71875 -2.75 0.71875zm2.359375 -2.140625q0.671875 0 1.21875 -0.3125q0.546875 -0.3125 1.046875 -1.046875l0 -6.828125q-0.296875 0.5 -0.828125 0.90625q-0.53125 0.390625 -1.140625 0.8125q-0.59375 0.40625 -1.15625 0.90625q-0.546875 0.5 -0.875 1.234375q-0.328125 0.734375 -0.328125 1.765625q0 1.296875 0.5625 1.9375q0.5625 0.625 1.5 0.625zm17.060791 -20.796875l0 5.46875l3.9375 0l0 0.671875l-3.9375 0l0 13.46875q0 1.0 0.359375 1.421875q0.375 0.40625 1.109375 0.40625q0.59375 0 1.1875 -0.453125q0.609375 -0.453125 1.078125 -1.546875l0.5625 0.296875q-0.53125 1.5 -1.609375 2.46875q-1.078125 0.96875 -2.953125 0.96875q-1.09375 0 -1.9375 -0.28125q-0.828125 -0.28125 -1.390625 -0.859375q-0.734375 -0.734375 -0.96875 -1.8125q-0.234375 -1.078125 -0.234375 -2.8125l0 -11.265625l-2.796875 0l0 -0.671875l2.796875 0l0 -4.390625q1.40625 0 2.578125 -0.25q1.1875 -0.25 2.21875 -0.828125zm9.294006 -3.125q1.40625 0 2.21875 0.6875q0.8125 0.671875 0.8125 1.875q0 1.203125 -0.8125 1.890625q-0.8125 0.671875 -2.21875 0.671875q-1.390625 0 -2.21875 -0.671875q-0.8125 -0.6875 -0.8125 -1.890625q0 -1.203125 0.8125 -1.875q0.828125 -0.6875 2.21875 -0.6875zm2.609375 8.234375l0 14.5q0 1.390625 0.484375 1.890625q0.484375 0.5 1.640625 0.5l0 0.703125q-0.59375 -0.03125 -1.859375 -0.078125q-1.265625 -0.0625 -2.5625 -0.0625q-1.3125 0 -2.640625 0.0625q-1.328125 0.046875 -2.0 0.078125l0 -0.703125q1.171875 0 1.65625 -0.5q0.484375 -0.5 0.484375 -1.890625l0 -10.5q0 -1.5 -0.453125 -2.21875q-0.453125 -0.71875 -1.6875 -0.71875l0 -0.703125q1.0625 0.109375 2.0625 0.109375q1.40625 0 2.625 -0.109375q1.21875 -0.125 2.25 -0.359375zm12.170166 -0.109375q2.421875 0 4.25 0.90625q1.84375 0.90625 2.875 2.90625q1.03125 2.0 1.03125 5.296875q0 3.296875 -1.03125 5.28125q-1.03125 1.984375 -2.875 2.890625q-1.828125 0.890625 -4.25 0.890625q-2.375 0 -4.234375 -0.890625q-1.84375 -0.90625 -2.890625 -2.890625q-1.046875 -1.984375 -1.046875 -5.28125q0 -3.296875 1.046875 -5.296875q1.046875 -2.0 2.890625 -2.90625q1.859375 -0.90625 4.234375 -0.90625zm0 0.671875q-1.34375 0 -2.25 1.984375q-0.890625 1.984375 -0.890625 6.453125q0 4.46875 0.890625 6.4375q0.90625 1.953125 2.25 1.953125q1.359375 0 2.234375 -1.953125q0.890625 -1.96875 0.890625 -6.4375q0 -4.46875 -0.890625 -6.453125q-0.875 -1.984375 -2.234375 -1.984375zm22.627258 -0.671875q1.390625 0 2.265625 0.359375q0.890625 0.34375 1.390625 0.953125q0.53125 0.625 0.78125 1.625q0.25 1.0 0.25 2.703125l0 8.96875q0 1.390625 0.484375 1.890625q0.484375 0.5 1.65625 0.5l0 0.703125q-0.640625 -0.03125 -1.90625 -0.078125q-1.265625 -0.0625 -2.5 -0.0625q-1.265625 0 -2.484375 0.0625q-1.203125 0.046875 -1.84375 0.078125l0 -0.703125q1.0 0 1.390625 -0.5q0.40625 -0.5 0.40625 -1.890625l0 -10.375q0 -0.828125 -0.171875 -1.4375q-0.15625 -0.625 -0.59375 -0.96875q-0.4375 -0.359375 -1.296875 -0.359375q-0.90625 0 -1.65625 0.5q-0.75 0.5 -1.203125 1.390625q-0.4375 0.875 -0.4375 1.984375l0 9.265625q0 1.390625 0.40625 1.890625q0.421875 0.5 1.390625 0.5l0 0.703125q-0.59375 -0.03125 -1.75 -0.078125q-1.15625 -0.0625 -2.375 -0.0625q-1.28125 0 -2.609375 0.0625q-1.328125 0.046875 -2.0 0.078125l0 -0.703125q1.171875 0 1.65625 -0.5q0.484375 -0.5 0.484375 -1.890625l0 -10.5q0 -1.5 -0.453125 -2.21875q-0.453125 -0.71875 -1.6875 -0.71875l0 -0.703125q1.0625 0.109375 2.0625 0.109375q1.40625 0 2.625 -0.109375q1.21875 -0.125 2.25 -0.359375l0 3.0q0.828125 -1.703125 2.265625 -2.40625q1.4375 -0.703125 3.203125 -0.703125z" fill-rule="nonzero"/><path fill="#000000" fill-opacity="0.0" d="m346.7349 300.2467l66.80316 0l0 42.015778l-66.80316 0z" fill-rule="evenodd"/><path fill="#ffffff" d="m355.7349 309.2467l35.204376 0l0 22.400024l-35.204376 0l0 -22.400024z" fill-rule="nonzero"/><path fill="#000000" fill-opacity="0.0" d="m355.7349 309.10745l35.204376 0l0 22.741974l-35.204376 0l0 -22.741974z" fill-rule="nonzero"/><path fill="#000000" d="m361.06302 329.4011l0 -17.53125l0.9375 0l0 17.53125l-0.9375 0zm0.40625 -2.125q-1.46875 0 -2.796875 -0.46875q-1.328125 -0.484375 -2.0625 -1.21875l0.546875 -1.078125q0.6875 0.671875 1.84375 1.140625q1.171875 0.453125 2.46875 0.453125q1.21875 0 1.984375 -0.296875q0.78125 -0.3125 1.140625 -0.828125q0.375 -0.53125 0.375 -1.171875q0 -0.765625 -0.4375 -1.234375q-0.4375 -0.46875 -1.15625 -0.734375q-0.703125 -0.265625 -1.5625 -0.46875q-0.859375 -0.203125 -1.71875 -0.4375q-0.859375 -0.234375 -1.578125 -0.625q-0.703125 -0.390625 -1.15625 -1.03125q-0.4375 -0.65625 -0.4375 -1.703125q0 -0.96875 0.515625 -1.78125q0.515625 -0.8125 1.578125 -1.296875q1.0625 -0.5 2.71875 -0.5q1.109375 0 2.1875 0.3125q1.078125 0.296875 1.875 0.84375l-0.46875 1.109375q-0.84375 -0.5625 -1.796875 -0.828125q-0.9375 -0.265625 -1.8125 -0.265625q-1.171875 0 -1.9375 0.328125q-0.765625 0.3125 -1.125 0.84375q-0.359375 0.53125 -0.359375 1.203125q0 0.765625 0.4375 1.234375q0.4375 0.46875 1.15625 0.734375q0.71875 0.25 1.5625 0.453125q0.859375 0.203125 1.703125 0.453125q0.859375 0.234375 1.578125 0.625q0.71875 0.375 1.15625 1.015625q0.4375 0.625 0.4375 1.65625q0 0.953125 -0.53125 1.765625q-0.515625 0.8125 -1.59375 1.3125q-1.0625 0.484375 -2.734375 0.484375zm6.6759033 -3.546875l0 -0.96875l6.921875 -8.65625l1.484375 0l-6.859375 8.65625l-0.734375 -0.21875l10.515625 0l0 1.1875l-11.328125 0zm7.359375 3.4375l0 -3.4375l0.046875 -1.1875l0 -3.03125l1.296875 0l0 7.65625l-1.34375 0zm9.104309 -13.171875q1.734375 0 2.921875 0.78125q1.203125 0.765625 1.8125 2.21875q0.625 1.453125 0.625 3.53125q0 2.203125 -0.765625 3.71875q-0.75 1.5 -2.09375 2.265625q-1.34375 0.765625 -3.109375 0.765625q-0.875 0 -1.671875 -0.15625q-0.796875 -0.171875 -1.421875 -0.546875l0.53125 -1.078125q0.515625 0.328125 1.171875 0.46875q0.65625 0.140625 1.375 0.140625q2.109375 0 3.359375 -1.34375q1.265625 -1.34375 1.265625 -4.015625q0 -0.421875 -0.046875 -1.015625q-0.046875 -0.609375 -0.21875 -1.203125l0.46875 0.359375q-0.1875 0.96875 -0.796875 1.65625q-0.609375 0.671875 -1.5 1.03125q-0.875 0.34375 -1.953125 0.34375q-1.296875 0 -2.296875 -0.484375q-0.984375 -0.484375 -1.546875 -1.359375q-0.5625 -0.875 -0.5625 -2.0625q0 -1.234375 0.578125 -2.125q0.578125 -0.90625 1.59375 -1.390625q1.015625 -0.5 2.28125 -0.5zm0.0625 1.140625q-0.9375 0 -1.65625 0.34375q-0.71875 0.34375 -1.125 0.984375q-0.40625 0.625 -0.40625 1.5q0 1.296875 0.875 2.0625q0.890625 0.765625 2.40625 0.765625q1.0 0 1.75 -0.375q0.765625 -0.375 1.1875 -1.03125q0.421875 -0.65625 0.421875 -1.453125q0 -0.734375 -0.390625 -1.359375q-0.390625 -0.640625 -1.15625 -1.03125q-0.765625 -0.40625 -1.90625 -0.40625z" fill-rule="nonzero"/><path fill="#010000" fill-opacity="0.0" d="m390.93927 309.10745l0 0l0 22.741974l0 0l0 -22.741974z" fill-rule="nonzero"/><path fill="#000000" fill-opacity="0.0" d="m74.88189 237.31758l770.77167 0l0 42.015762l-770.77167 0z" fill-rule="evenodd"/><path fill="#000000" d="m84.491264 264.23758l0 -1.953125l5.046875 -4.765625q0.59375 -0.53125 0.875 -0.953125q0.28125 -0.4375 0.375 -0.796875q0.109375 -0.359375 0.109375 -0.65625q0 -0.78125 -0.53125 -1.203125q-0.53125 -0.421875 -1.5625 -0.421875q-0.8125 0 -1.515625 0.328125q-0.703125 0.3125 -1.1875 0.984375l-2.203125 -1.421875q0.75 -1.125 2.09375 -1.765625q1.34375 -0.65625 3.09375 -0.65625q1.453125 0 2.546875 0.484375q1.09375 0.46875 1.703125 1.328125q0.609375 0.859375 0.609375 2.046875q0 0.640625 -0.171875 1.265625q-0.15625 0.625 -0.640625 1.3125q-0.46875 0.6875 -1.375 1.546875l-4.1875 3.9375l-0.578125 -1.109375l7.375 0l0 2.46875l-9.875 0zm17.224411 0l0 -13.0625l5.9375 0q2.125 0 3.75 0.8125q1.625 0.8125 2.53125 2.265625q0.921875 1.453125 0.921875 3.453125q0 1.984375 -0.921875 3.453125q-0.90625 1.453125 -2.53125 2.265625q-1.625 0.8125 -3.75 0.8125l-5.9375 0zm3.03125 -2.484375l2.75 0q1.3125 0 2.265625 -0.484375q0.96875 -0.5 1.5 -1.40625q0.53125 -0.921875 0.53125 -2.15625q0 -1.25 -0.53125 -2.15625q-0.53125 -0.90625 -1.5 -1.390625q-0.953125 -0.5 -2.265625 -0.5l-2.75 0l0 8.09375zm18.33194 2.484375l0 -1.953125l-0.1875 -0.4375l0 -3.5q0 -0.9375 -0.578125 -1.453125q-0.5625 -0.53125 -1.734375 -0.53125q-0.796875 0 -1.578125 0.25q-0.765625 0.25 -1.3125 0.6875l-1.046875 -2.03125q0.828125 -0.578125 1.984375 -0.890625q1.15625 -0.328125 2.34375 -0.328125q2.296875 0 3.5625 1.09375q1.265625 1.078125 1.265625 3.359375l0 5.734375l-2.71875 0zm-3.0625 0.15625q-1.171875 0 -2.015625 -0.40625q-0.84375 -0.40625 -1.296875 -1.09375q-0.4375 -0.6875 -0.4375 -1.546875q0 -0.890625 0.4375 -1.5625q0.4375 -0.671875 1.390625 -1.046875q0.953125 -0.390625 2.484375 -0.390625l2.671875 0l0 1.6875l-2.359375 0q-1.015625 0 -1.40625 0.34375q-0.375 0.328125 -0.375 0.84375q0 0.546875 0.4375 0.875q0.4375 0.328125 1.203125 0.328125q0.71875 0 1.296875 -0.34375q0.578125 -0.34375 0.84375 -1.015625l0.453125 1.34375q-0.328125 0.96875 -1.171875 1.484375q-0.828125 0.5 -2.15625 0.5zm9.496132 3.609375q-0.78125 0 -1.5468826 -0.25q-0.765625 -0.234375 -1.25 -0.65625l1.0625 -2.078125q0.34375763 0.296875 0.7812576 0.46875q0.4375 0.171875 0.859375 0.171875q0.625 0 0.984375 -0.296875q0.359375 -0.28125 0.65625 -0.953125l0.53125 -1.234375l0.21875 -0.3125l3.59375 -8.65625l2.8125 0l-4.546875 10.640625q-0.484375 1.21875 -1.109375 1.90625q-0.625 0.6875 -1.375 0.96875q-0.75 0.28125 -1.671875 0.28125zm1.71875 -3.375l-4.4843826 -10.421875l3.0156326 0l3.46875 8.390625l-2.0 2.03125zm11.39772 -0.234375q-1.28125 0 -2.46875 -0.3125q-1.1875 -0.3125 -1.875 -0.78125l0.96875 -2.078125q0.6875 0.421875 1.625 0.703125q0.953125 0.265625 1.859375 0.265625q1.015625 0 1.421875 -0.234375q0.421875 -0.25 0.421875 -0.6875q0 -0.359375 -0.328125 -0.53125q-0.3125 -0.171875 -0.859375 -0.265625q-0.546875 -0.09375 -1.1875 -0.1875q-0.640625 -0.09375 -1.296875 -0.25q-0.65625 -0.15625 -1.203125 -0.46875q-0.53125 -0.328125 -0.859375 -0.859375q-0.328125 -0.546875 -0.328125 -1.40625q0 -0.953125 0.546875 -1.671875q0.5625 -0.734375 1.609375 -1.15625q1.046875 -0.421875 2.5 -0.421875q1.015625 0 2.078125 0.234375q1.0625 0.21875 1.78125 0.640625l-0.96875 2.078125q-0.734375 -0.4375 -1.46875 -0.59375q-0.734375 -0.15625 -1.421875 -0.15625q-0.96875 0 -1.421875 0.265625q-0.453125 0.25 -0.453125 0.671875q0 0.375 0.328125 0.5625q0.328125 0.171875 0.859375 0.296875q0.546875 0.109375 1.1875 0.203125q0.65625 0.078125 1.296875 0.25q0.65625 0.15625 1.1875 0.46875q0.53125 0.296875 0.859375 0.828125q0.34375 0.53125 0.34375 1.390625q0 0.9375 -0.5625 1.65625q-0.546875 0.71875 -1.609375 1.140625q-1.046875 0.40625 -2.5625 0.40625zm11.811188 -0.15625l0 -13.84375l2.90625 0l0 13.84375l-2.90625 0zm11.77179 0l0 -1.953125l-0.1875 -0.4375l0 -3.5q0 -0.9375 -0.578125 -1.453125q-0.5625 -0.53125 -1.734375 -0.53125q-0.796875 0 -1.578125 0.25q-0.765625 0.25 -1.3125 0.6875l-1.046875 -2.03125q0.828125 -0.578125 1.984375 -0.890625q1.15625 -0.328125 2.34375 -0.328125q2.296875 0 3.5625 1.09375q1.265625 1.078125 1.265625 3.359375l0 5.734375l-2.71875 0zm-3.0625 0.15625q-1.171875 0 -2.015625 -0.40625q-0.84375 -0.40625 -1.296875 -1.09375q-0.4375 -0.6875 -0.4375 -1.546875q0 -0.890625 0.4375 -1.5625q0.4375 -0.671875 1.390625 -1.046875q0.953125 -0.390625 2.484375 -0.390625l2.671875 0l0 1.6875l-2.359375 0q-1.015625 0 -1.40625 0.34375q-0.375 0.328125 -0.375 0.84375q0 0.546875 0.4375 0.875q0.4375 0.328125 1.203125 0.328125q0.71875 0 1.296875 -0.34375q0.578125 -0.34375 0.84375 -1.015625l0.453125 1.34375q-0.328125 0.96875 -1.171875 1.484375q-0.828125 0.5 -2.15625 0.5zm12.526535 0q-1.78125 0 -2.765625 -0.90625q-0.984375 -0.90625 -0.984375 -2.703125l0 -8.796875l2.90625 0l0 8.765625q0 0.625 0.328125 0.96875q0.34375 0.34375 0.921875 0.34375q0.6875 0 1.171875 -0.359375l0.78125 2.046875q-0.4375 0.3125 -1.0625 0.484375q-0.625 0.15625 -1.296875 0.15625zm-5.296875 -7.734375l0 -2.234375l6.953125 0l0 2.234375l-6.953125 0zm13.970001 7.734375q-1.71875 0 -3.015625 -0.671875q-1.296875 -0.671875 -2.015625 -1.84375q-0.703125 -1.171875 -0.703125 -2.65625q0 -1.515625 0.703125 -2.671875q0.703125 -1.171875 1.90625 -1.828125q1.21875 -0.671875 2.75 -0.671875q1.46875 0 2.65625 0.625q1.1875 0.625 1.875 1.796875q0.6875 1.15625 0.6875 2.78125q0 0.171875 -0.015625 0.390625q-0.015625 0.203125 -0.03125 0.390625l-8.15625 0l0 -1.6875l6.625 0l-1.125 0.5q0 -0.78125 -0.328125 -1.359375q-0.3125 -0.578125 -0.875 -0.90625q-0.546875 -0.328125 -1.296875 -0.328125q-0.75 0 -1.328125 0.328125q-0.5625 0.328125 -0.875 0.921875q-0.3125 0.578125 -0.3125 1.375l0 0.453125q0 0.828125 0.359375 1.453125q0.359375 0.625 1.015625 0.953125q0.671875 0.3125 1.578125 0.3125q0.796875 0 1.390625 -0.234375q0.609375 -0.25 1.125 -0.734375l1.546875 1.6875q-0.6875 0.78125 -1.734375 1.203125q-1.046875 0.421875 -2.40625 0.421875zm6.7877197 -0.15625l0 -10.03125l2.78125 0l0 2.828125l-0.390625 -0.8125q0.4375 -1.0625 1.421875 -1.609375q1.0 -0.5625 2.421875 -0.5625l0 2.6875q-0.1875 -0.015625 -0.34375 -0.015625q-0.140625 -0.015625 -0.3125 -0.015625q-1.1875 0 -1.9375 0.6875q-0.734375 0.671875 -0.734375 2.109375l0 4.734375l-2.90625 0z" fill-rule="nonzero"/><path fill="#000000" fill-opacity="0.0" d="m295.6404 253.979l191.46457 0l0 42.015747l-191.46457 0z" fill-rule="evenodd"/><path fill="#ff0000" d="m305.3748 280.99274q-0.171875 0 -0.265625 -0.09375q-0.09375 -0.09375 -0.09375 -0.203125q0 -0.109375 0.09375 -0.21875q0.09375 -0.125 0.28125 -0.171875q0.609375 -0.1875 0.859375 -0.390625q0.25 -0.203125 0.25 -0.78125l0 -8.515625q0 -0.40625 -0.109375 -0.625q-0.09375 -0.234375 -0.359375 -0.375q-0.25 -0.140625 -0.75 -0.25q-0.359375 -0.09375 -0.359375 -0.40625q0 -0.140625 0.109375 -0.203125q0.109375 -0.078125 0.21875 -0.078125q0.421875 0 0.921875 0.015625q0.515625 0.015625 1.015625 0.046875q0.5 0.03125 0.875 0.03125q0.359375 0 0.875 -0.015625q0.53125 -0.015625 1.0625 -0.03125q0.546875 -0.03125 0.953125 -0.03125q0.140625 0 0.21875 0.0625q0.078125 0.0625 0.078125 0.21875q0 0.1875 -0.09375 0.265625q-0.09375 0.078125 -0.265625 0.125q-0.765625 0.21875 -1.0 0.46875q-0.21875 0.234375 -0.21875 0.796875l0 8.3125q0 0.515625 0.21875 0.734375q0.234375 0.21875 0.703125 0.21875l1.8125 0q0.390625 0 0.703125 -0.140625q0.3125 -0.140625 0.578125 -0.390625q0.3125 -0.296875 0.5625 -0.6875q0.265625 -0.40625 0.453125 -0.828125q0.203125 -0.421875 0.296875 -0.5q0.109375 -0.09375 0.21875 -0.09375q0.15625 0 0.203125 0.140625q0.0625 0.125 0.0625 0.25q0 0.046875 -0.046875 0.203125q-0.03125 0.140625 -0.03125 0.234375q-0.15625 0.5625 -0.265625 0.96875q-0.109375 0.390625 -0.171875 0.75q-0.0625 0.359375 -0.125 0.828125q-0.015625 0.140625 -0.078125 0.25q-0.0625 0.109375 -0.234375 0.109375q-0.265625 0 -0.984375 -0.015625q-0.71875 -0.015625 -1.671875 -0.03125q-0.953125 -0.015625 -1.96875 -0.03125q-1.015625 -0.015625 -1.84375 -0.015625q-0.375 0 -0.859375 0.015625q-0.484375 0.015625 -0.984375 0.046875q-0.484375 0.03125 -0.84375 0.03125zm10.870087 -0.03125q-0.109375 0 -0.203125 -0.078125q-0.09375 -0.078125 -0.09375 -0.1875q0 -0.15625 0.078125 -0.25q0.09375 -0.09375 0.234375 -0.125q0.5 -0.125 0.6875 -0.25q0.203125 -0.140625 0.203125 -0.4375l0 -4.03125q0 -0.671875 -0.203125 -0.90625q-0.1875 -0.234375 -0.59375 -0.296875q-0.109375 -0.015625 -0.171875 -0.109375q-0.046875 -0.109375 -0.046875 -0.234375q0 -0.296875 0.21875 -0.34375q1.015625 -0.203125 1.828125 -0.546875q0.828125 -0.34375 1.25 -0.53125q0.34375 -0.140625 0.40625 -0.140625q0.265625 0 0.265625 0.25q-0.015625 0.359375 -0.078125 0.84375q-0.0625 0.46875 -0.109375 0.96875q-0.046875 0.5 -0.046875 0.96875l0 4.09375q0 0.234375 0.1875 0.390625q0.1875 0.140625 0.703125 0.3125q0.140625 0.0625 0.234375 0.140625q0.09375 0.0625 0.09375 0.21875q0 0.25 -0.265625 0.25q-0.359375 0 -0.78125 -0.015625q-0.421875 -0.015625 -0.828125 -0.03125q-0.390625 -0.015625 -0.734375 -0.015625q-0.3125 0 -0.703125 0.015625q-0.375 0.015625 -0.765625 0.046875q-0.390625 0.03125 -0.765625 0.03125zm2.15625 -9.171875q-0.625 0 -1.09375 -0.453125q-0.46875 -0.46875 -0.46875 -1.109375q0 -0.6875 0.46875 -1.15625q0.46875 -0.46875 1.09375 -0.46875q0.703125 0 1.15625 0.46875q0.46875 0.46875 0.46875 1.15625q0 0.640625 -0.46875 1.109375q-0.453125 0.453125 -1.15625 0.453125zm8.099426 14.46875q-0.125 0 -0.21875 -0.09375q-0.078125 -0.078125 -0.078125 -0.1875q0 -0.15625 0.109375 -0.25q0.125 -0.078125 0.296875 -0.125q0.53125 -0.15625 0.75 -0.34375q0.234375 -0.1875 0.234375 -0.59375l0.015625 -4.046875q0 -0.203125 -0.046875 -0.296875q-0.046875 -0.109375 -0.09375 -0.109375q-0.03125 0.015625 -0.078125 0.03125q-0.046875 0.015625 -0.078125 0.0625q-0.265625 0.171875 -0.640625 0.375q-0.375 0.203125 -0.78125 0.34375q-0.390625 0.140625 -0.75 0.140625q-1.0 0 -1.796875 -0.53125q-0.78125 -0.53125 -1.234375 -1.421875q-0.453125 -0.890625 -0.453125 -1.96875q0 -1.140625 0.5 -2.15625q0.5 -1.03125 1.53125 -1.6875q1.03125 -0.65625 2.59375 -0.65625q0.65625 0 1.171875 0.125q0.53125 0.109375 0.921875 0.234375q0.390625 0.109375 0.65625 0.109375q0.171875 0 0.359375 -0.0625q0.1875 -0.0625 0.34375 -0.171875q0.09375 -0.0625 0.15625 -0.09375q0.0625 -0.046875 0.140625 -0.046875q0.1875 0 0.265625 0.078125q0.09375 0.078125 0.09375 0.171875q0 0.15625 -0.109375 0.65625q-0.09375 0.5 -0.09375 1.3125l0.03125 9.8125q0 0.296875 0.140625 0.4375q0.140625 0.140625 0.546875 0.28125q0.203125 0.046875 0.3125 0.140625q0.125 0.09375 0.125 0.25q0 0.125 -0.125 0.203125q-0.109375 0.078125 -0.25 0.078125q-0.5625 0 -1.09375 -0.046875q-0.53125 -0.046875 -1.015625 -0.046875q-0.328125 0 -0.734375 0.015625q-0.40625 0.015625 -0.828125 0.046875q-0.421875 0.03125 -0.796875 0.03125zm-0.234375 -6.40625q0.328125 0 0.703125 -0.09375q0.390625 -0.09375 0.640625 -0.375q0 -0.3125 0 -0.796875q0 -0.5 0 -1.0625q0 -0.5625 0 -1.0625q0 -0.5 0 -0.8125q0 -0.90625 -0.5 -1.484375q-0.5 -0.578125 -1.125 -0.578125q-0.453125 0 -0.78125 0.4375q-0.328125 0.4375 -0.5 1.15625q-0.171875 0.71875 -0.171875 1.5625q0 0.5625 0.09375 1.109375q0.109375 0.546875 0.3125 1.015625q0.203125 0.453125 0.53125 0.71875q0.328125 0.265625 0.796875 0.265625zm11.44635 1.4375q-0.15625 0 -0.15625 -0.1875q0 -0.21875 0.046875 -0.59375q0.046875 -0.390625 0.046875 -0.578125q0 -0.09375 -0.015625 -0.140625q-0.015625 -0.0625 -0.03125 -0.078125q-0.4375 0.578125 -1.25 1.03125q-0.796875 0.4375 -1.65625 0.4375q-0.578125 0 -1.046875 -0.359375q-0.46875 -0.375 -0.734375 -0.984375q-0.265625 -0.609375 -0.265625 -1.359375l0 -3.4375q0 -0.421875 -0.15625 -0.6875q-0.15625 -0.28125 -0.578125 -0.359375q-0.109375 -0.015625 -0.203125 -0.09375q-0.09375 -0.09375 -0.09375 -0.25q0 -0.140625 0.0625 -0.234375q0.078125 -0.09375 0.21875 -0.109375q0.8125 -0.03125 1.515625 -0.15625q0.703125 -0.140625 1.390625 -0.3125q0.09375 -0.03125 0.21875 -0.0625q0.125 -0.03125 0.234375 -0.03125q0.25 0 0.234375 0.265625q-0.078125 0.421875 -0.109375 0.71875q-0.03125 0.28125 -0.03125 0.71875l0 3.5625q0 0.453125 0.125 0.78125q0.125 0.3125 0.359375 0.5q0.25 0.171875 0.5625 0.1875q0.25 0 0.515625 -0.078125q0.28125 -0.078125 0.515625 -0.328125q0.09375 -0.09375 0.171875 -0.375q0.09375 -0.28125 0.09375 -0.75l0 -2.90625q0 -0.3125 -0.109375 -0.53125q-0.09375 -0.234375 -0.3125 -0.375q-0.203125 -0.140625 -0.53125 -0.15625q-0.21875 -0.015625 -0.34375 -0.109375q-0.125 -0.09375 -0.125 -0.3125q0 -0.21875 0.140625 -0.3125q0.140625 -0.09375 0.328125 -0.09375q1.03125 -0.0625 1.625 -0.109375q0.59375 -0.046875 0.96875 -0.09375q0.375 -0.0625 0.734375 -0.140625q0.046875 -0.015625 0.125 -0.03125q0.078125 -0.03125 0.140625 -0.03125q0.265625 0 0.265625 0.234375q0 0.0625 -0.015625 0.140625q-0.015625 0.078125 -0.046875 0.171875q-0.03125 0.078125 -0.0625 0.328125q-0.015625 0.25 -0.046875 0.53125q-0.03125 0.28125 -0.03125 0.4375l0 4.328125q0 0.421875 0.09375 0.546875q0.109375 0.125 0.25 0.125q0.078125 0 0.234375 0.015625q0.15625 0.015625 0.203125 0.015625q0.1875 0 0.28125 0.109375q0.09375 0.09375 0.09375 0.234375q0 0.1875 -0.0625 0.3125q-0.0625 0.109375 -0.265625 0.125q-0.9375 0.078125 -1.703125 0.328125q-0.765625 0.234375 -1.296875 0.4375q-0.140625 0.046875 -0.265625 0.078125q-0.125 0.046875 -0.25 0.046875zm4.6697693 -0.328125q-0.109375 0 -0.203125 -0.078125q-0.09375 -0.078125 -0.09375 -0.1875q0 -0.15625 0.078125 -0.25q0.09375 -0.09375 0.234375 -0.125q0.5 -0.125 0.6875 -0.25q0.203125 -0.140625 0.203125 -0.4375l0 -4.03125q0 -0.671875 -0.203125 -0.90625q-0.1875 -0.234375 -0.59375 -0.296875q-0.109375 -0.015625 -0.171875 -0.109375q-0.046875 -0.109375 -0.046875 -0.234375q0 -0.296875 0.21875 -0.34375q1.015625 -0.203125 1.828125 -0.546875q0.828125 -0.34375 1.25 -0.53125q0.34375 -0.140625 0.40625 -0.140625q0.265625 0 0.265625 0.25q-0.015625 0.359375 -0.078125 0.84375q-0.0625 0.46875 -0.109375 0.96875q-0.046875 0.5 -0.046875 0.96875l0 4.09375q0 0.234375 0.1875 0.390625q0.1875 0.140625 0.703125 0.3125q0.140625 0.0625 0.234375 0.140625q0.09375 0.0625 0.09375 0.21875q0 0.25 -0.265625 0.25q-0.359375 0 -0.78125 -0.015625q-0.421875 -0.015625 -0.828125 -0.03125q-0.390625 -0.015625 -0.734375 -0.015625q-0.3125 0 -0.703125 0.015625q-0.375 0.015625 -0.765625 0.046875q-0.390625 0.03125 -0.765625 0.03125zm2.15625 -9.171875q-0.625 0 -1.09375 -0.453125q-0.46875 -0.46875 -0.46875 -1.109375q0 -0.6875 0.46875 -1.15625q0.46875 -0.46875 1.09375 -0.46875q0.703125 0 1.15625 0.46875q0.46875 0.46875 0.46875 1.15625q0 0.640625 -0.46875 1.109375q-0.453125 0.453125 -1.15625 0.453125zm9.552551 9.46875q-0.046875 0 -0.15625 -0.140625q-0.109375 -0.125 -0.109375 -0.203125q0.046875 -0.3125 0.0625 -0.546875q0.03125 -0.234375 0.046875 -0.421875l0 -0.109375q-0.421875 0.609375 -1.09375 0.96875q-0.671875 0.359375 -1.390625 0.359375q-1.03125 0 -1.859375 -0.515625q-0.8125 -0.515625 -1.296875 -1.40625q-0.484375 -0.90625 -0.484375 -2.0q0 -1.3125 0.578125 -2.296875q0.578125 -1.0 1.59375 -1.5625q1.03125 -0.5625 2.359375 -0.5625q0.265625 0 0.546875 0.046875q0.296875 0.03125 0.5625 0.109375q0.28125 0.046875 0.234375 0.046875q0.078125 0 0.078125 -0.203125l0 -2.109375q0 -0.65625 -0.15625 -0.953125q-0.140625 -0.3125 -0.53125 -0.390625q-0.234375 -0.046875 -0.234375 -0.296875q0 -0.25 0.21875 -0.28125q0.671875 -0.140625 1.453125 -0.390625q0.796875 -0.25 1.3125 -0.46875q0.28125 -0.125 0.375 -0.15625q0.09375 -0.03125 0.125 -0.03125q0.21875 0 0.21875 0.25q0 -0.09375 -0.03125 0.078125q-0.015625 0.171875 -0.03125 0.453125q-0.015625 0.265625 -0.03125 0.46875l-0.109375 9.625q0 0.640625 0.09375 0.921875q0.09375 0.265625 0.328125 0.265625q0.09375 0 0.171875 -0.015625q0.09375 -0.015625 0.5625 -0.046875q0.234375 -0.015625 0.234375 0.203125q0 0.15625 -0.125 0.328125q-0.109375 0.171875 -0.203125 0.171875q-0.71875 0.078125 -1.5 0.265625q-0.78125 0.171875 -1.46875 0.4375q-0.109375 0.046875 -0.203125 0.078125q-0.078125 0.03125 -0.140625 0.03125zm-1.609375 -1.4375q0.21875 0 0.625 -0.125q0.40625 -0.125 0.65625 -0.359375l-0.015625 -4.3125q0 -0.28125 -0.25 -0.578125q-0.234375 -0.296875 -0.59375 -0.5q-0.359375 -0.203125 -0.671875 -0.203125q-0.453125 0 -0.796875 0.375q-0.34375 0.375 -0.546875 1.046875q-0.203125 0.671875 -0.203125 1.5625q0 0.6875 0.125 1.265625q0.140625 0.5625 0.375 0.96875q0.25 0.40625 0.578125 0.640625q0.328125 0.21875 0.71875 0.21875zm7.909729 1.34375q-0.546875 0 -1.0 -0.234375q-0.4375 -0.234375 -0.703125 -0.625q-0.265625 -0.40625 -0.265625 -0.90625q0 -0.640625 0.421875 -1.09375q0.421875 -0.453125 1.21875 -0.796875l1.609375 -0.71875q0.375 -0.15625 0.46875 -0.296875q0.09375 -0.140625 0.09375 -0.5l0.015625 -1.03125q0.015625 -0.53125 -0.171875 -0.8125q-0.1875 -0.296875 -0.578125 -0.296875q-0.21875 0 -0.46875 0.109375q-0.234375 0.09375 -0.34375 0.21875q-0.0625 0.078125 -0.078125 0.171875q-0.015625 0.09375 -0.015625 0.1875q0 0.109375 0.015625 0.296875q0.015625 0.171875 0.015625 0.28125q0 0.125 -0.3125 0.3125q-0.3125 0.171875 -0.734375 0.3125q-0.40625 0.140625 -0.703125 0.140625q-0.15625 0 -0.265625 -0.125q-0.09375 -0.125 -0.09375 -0.3125q0 -0.296875 0.203125 -0.578125q0.203125 -0.28125 0.703125 -0.671875q0.5 -0.40625 1.09375 -0.71875q0.59375 -0.328125 1.171875 -0.515625q0.578125 -0.203125 0.984375 -0.203125q1.078125 0 1.703125 0.6875q0.640625 0.6875 0.59375 1.8125l-0.09375 3.625q-0.015625 0.4375 0.140625 0.75q0.15625 0.296875 0.40625 0.296875q0.328125 0 0.59375 -0.25q0.0625 -0.046875 0.109375 -0.046875q0.09375 0 0.15625 0.0625q0.078125 0.0625 0.078125 0.15625q0 0.21875 -0.375 0.59375q-0.359375 0.359375 -0.765625 0.53125q-0.40625 0.1875 -0.859375 0.1875q-1.078125 0 -1.8125 -1.09375l-0.03125 0q-0.625 0.578125 -1.109375 0.828125q-0.484375 0.265625 -1.015625 0.265625zm1.15625 -1.296875q0.15625 0 0.265625 -0.046875q0.125 -0.0625 0.21875 -0.1875q0.046875 -0.078125 0.078125 -0.1875q0.03125 -0.109375 0.03125 -0.25l0.046875 -1.4375q0 -0.15625 -0.0625 -0.203125q-0.046875 -0.046875 -0.125 -0.046875q-0.03125 0 -0.078125 0.015625q-0.046875 0 -0.09375 0.03125q-0.453125 0.25 -0.6875 0.5q-0.234375 0.25 -0.234375 0.90625q0 0.53125 0.21875 0.71875q0.21875 0.1875 0.421875 0.1875zm8.933075 1.296875q-1.3125 0 -1.953125 -0.625q-0.625 -0.640625 -0.625 -1.8125l0 -4.28125q0 -0.171875 -0.140625 -0.234375q-0.125 -0.078125 -0.4375 -0.109375l-0.28125 0q-0.125 0 -0.21875 -0.21875q-0.09375 -0.234375 -0.09375 -0.421875q0 -0.046875 0.015625 -0.09375q0.015625 -0.0625 0.09375 -0.078125q0.46875 -0.15625 1.03125 -0.515625q0.5625 -0.375 1.078125 -0.796875q0.515625 -0.421875 0.84375 -0.6875q0.140625 -0.109375 0.234375 -0.1875q0.109375 -0.078125 0.265625 -0.078125q0.1875 0 0.25 0.078125q0.078125 0.078125 0.046875 0.34375l-0.125 1.15625q-0.03125 0.234375 0.09375 0.328125q0.140625 0.078125 0.375 0.078125l2.234375 0q0.03125 0 0.078125 0.140625q0.0625 0.125 0.0625 0.21875q0 0.296875 -0.078125 0.546875q-0.0625 0.25 -0.15625 0.25l-1.71875 0q-0.40625 0 -0.578125 0.109375q-0.171875 0.109375 -0.171875 0.359375l0 3.484375q0 0.875 0.328125 1.296875q0.328125 0.421875 0.875 0.421875q0.515625 0 0.75 -0.109375q0.25 -0.109375 0.453125 -0.1875q0.078125 -0.046875 0.140625 -0.046875q0.09375 0 0.140625 0.125q0.0625 0.125 0.0625 0.296875q0 0.109375 -0.421875 0.421875q-0.40625 0.296875 -1.0625 0.5625q-0.640625 0.265625 -1.390625 0.265625zm6.9573975 0q-1.015625 0 -1.8125 -0.546875q-0.796875 -0.546875 -1.265625 -1.46875q-0.46875 -0.921875 -0.46875 -2.078125q0 -1.1875 0.5625 -2.171875q0.5625 -0.984375 1.515625 -1.5625q0.953125 -0.578125 2.109375 -0.578125q0.796875 0 1.4375 0.359375q0.65625 0.359375 1.046875 0.953125q0.40625 0.578125 0.40625 1.328125q0 0.71875 -0.578125 0.71875l-3.703125 0q-0.265625 0 -0.390625 0.15625q-0.109375 0.140625 -0.109375 0.5q0 0.671875 0.296875 1.234375q0.296875 0.546875 0.8125 0.859375q0.53125 0.3125 1.21875 0.3125q0.546875 0 1.0 -0.203125q0.453125 -0.203125 0.921875 -0.5625q0.0625 -0.03125 0.125 -0.078125q0.078125 -0.046875 0.140625 -0.046875q0.203125 0 0.203125 0.234375q0 0.171875 -0.109375 0.515625q-0.171875 0.5 -0.625 1.0q-0.4375 0.484375 -1.140625 0.8125q-0.703125 0.3125 -1.59375 0.3125zm-0.75 -5.859375l0.984375 0q0.546875 0 0.71875 -0.015625q0.1875 -0.03125 0.328125 -0.078125q0.09375 -0.046875 0.140625 -0.203125q0.0625 -0.171875 0.0625 -0.359375q0 -0.484375 -0.3125 -0.78125q-0.296875 -0.3125 -0.78125 -0.3125q-0.375 0 -0.703125 0.21875q-0.328125 0.203125 -0.53125 0.546875q-0.203125 0.328125 -0.1875 0.703125q0 0.28125 0.28125 0.28125zm22.024872 5.953125q-0.265625 0 -0.828125 -0.296875q-0.546875 -0.28125 -1.15625 -1.03125q-0.515625 -0.5625 -1.03125 -1.109375q-0.515625 -0.546875 -1.046875 -1.09375q-0.515625 -0.5625 -1.046875 -1.109375q-0.515625 -0.546875 -1.03125 -1.078125q-0.515625 -0.546875 -1.03125 -1.09375q-0.515625 -0.5625 -1.03125 -1.109375q-0.515625 -0.546875 -1.046875 -1.109375q-0.015625 -0.046875 -0.09375 -0.109375q-0.0625 -0.078125 -0.109375 -0.078125q-0.0625 0 -0.09375 0.140625q-0.03125 0.125 -0.03125 0.21875q0 0.828125 0.03125 1.984375q0.03125 1.15625 0.046875 2.328125q0.03125 1.171875 0.03125 2.078125q0 0.640625 0.390625 0.96875q0.40625 0.3125 1.15625 0.5q0.171875 0.046875 0.328125 0.140625q0.171875 0.078125 0.171875 0.25q0 0.140625 -0.15625 0.21875q-0.140625 0.0625 -0.28125 0.0625q-0.5 0 -0.84375 -0.015625q-0.328125 -0.015625 -0.625 -0.015625q-0.28125 -0.015625 -0.671875 -0.015625q-0.4375 0 -0.84375 0.015625q-0.390625 0.015625 -0.65625 0.03125q-0.25 0.03125 -0.25 0.03125q-0.109375 0 -0.265625 -0.078125q-0.15625 -0.078125 -0.15625 -0.203125q0 -0.171875 0.140625 -0.25q0.140625 -0.09375 0.3125 -0.171875q0.421875 -0.15625 0.65625 -0.546875q0.234375 -0.390625 0.265625 -0.953125q0.078125 -0.6875 0.15625 -1.828125q0.09375 -1.140625 0.15625 -2.5625q0.078125 -1.421875 0.078125 -2.953125q0 -0.96875 -0.484375 -1.390625q-0.484375 -0.4375 -1.171875 -0.6875q-0.171875 -0.046875 -0.34375 -0.140625q-0.15625 -0.109375 -0.15625 -0.28125q0 -0.15625 0.140625 -0.21875q0.140625 -0.078125 0.34375 -0.078125q0.296875 0 0.734375 0.03125q0.4375 0.015625 0.953125 0.03125q0.515625 0 1.046875 0.015625q0.546875 0.015625 1.046875 0.015625q0.15625 0 0.234375 0.046875q0.09375 0.046875 0.140625 0.140625q0.484375 0.546875 0.984375 1.09375q0.5 0.546875 0.984375 1.09375q0.5 0.546875 0.984375 1.09375q0.5 0.53125 0.984375 1.078125q0.484375 0.546875 0.984375 1.09375q0.5 0.546875 0.984375 1.09375q0.5 0.546875 0.984375 1.09375q0.046875 0.0625 0.125 0.140625q0.078125 0.078125 0.140625 0.078125q0.140625 0 0.140625 -0.265625q0 -0.65625 0 -1.421875q0 -0.78125 0 -1.59375q0 -0.8125 -0.015625 -1.5625q0 -0.75 -0.03125 -1.328125q-0.03125 -0.546875 -0.390625 -0.78125q-0.359375 -0.25 -1.078125 -0.4375q-0.15625 -0.03125 -0.296875 -0.109375q-0.125 -0.09375 -0.125 -0.28125q0 -0.125 0.125 -0.203125q0.140625 -0.078125 0.265625 -0.078125q0.5 0 0.8125 0.015625q0.328125 0 0.578125 0.015625q0.265625 0.015625 0.59375 0.015625q0.359375 0 0.625 -0.015625q0.265625 -0.015625 0.5625 -0.03125q0.3125 -0.015625 0.78125 -0.015625q0.203125 0 0.328125 0.078125q0.125 0.0625 0.125 0.203125q0 0.296875 -0.46875 0.390625q-0.640625 0.125 -0.9375 0.375q-0.296875 0.234375 -0.296875 0.796875q0 0.796875 -0.015625 1.59375q-0.015625 0.796875 -0.0625 1.5625q-0.03125 0.765625 -0.078125 1.484375q-0.03125 0.71875 -0.046875 1.375q-0.015625 0.640625 -0.015625 1.1875q0 0.421875 0.046875 0.984375q0.0625 0.546875 0.109375 1.0q0.0625 0.453125 0.0625 0.625q0 0.5 -0.140625 0.703125q-0.140625 0.21875 -0.390625 0.21875zm3.0269165 -0.296875q-0.109375 0 -0.21875 -0.078125q-0.109375 -0.078125 -0.109375 -0.203125q0 -0.328125 0.359375 -0.421875q0.703125 -0.140625 0.953125 -0.359375q0.265625 -0.234375 0.265625 -0.8125l0 -8.46875q0 -0.59375 -0.234375 -0.84375q-0.21875 -0.25 -0.875 -0.40625q-0.234375 -0.046875 -0.3125 -0.15625q-0.078125 -0.125 -0.078125 -0.234375q0 -0.125 0.09375 -0.203125q0.109375 -0.09375 0.28125 -0.09375q0.40625 0 0.890625 0.015625q0.484375 0.015625 0.953125 0.046875q0.46875 0.03125 0.84375 0.03125q0.78125 0 1.703125 0q0.921875 0 1.765625 0q0.796875 0 1.453125 -0.09375q0.671875 -0.109375 1.078125 -0.109375q0.15625 0 0.3125 0.09375q0.15625 0.078125 0.171875 0.296875q0.03125 0.46875 0.046875 0.953125q0.03125 0.484375 0.03125 0.921875q0.015625 0.4375 0.015625 0.765625q0 0.375 -0.25 0.375q-0.09375 0 -0.21875 -0.0625q-0.125 -0.078125 -0.171875 -0.25q-0.125 -0.484375 -0.28125 -0.875q-0.15625 -0.40625 -0.421875 -0.671875q-0.25 -0.25 -0.578125 -0.359375q-0.3125 -0.125 -0.796875 -0.125l-1.1875 0q-0.453125 0 -0.765625 0.21875q-0.296875 0.21875 -0.296875 0.640625q0 0.3125 0 0.75q0 0.4375 0 0.75q0 0.421875 0 0.90625q0 0.484375 0 0.90625q0 0.25 0.125 0.359375q0.140625 0.09375 0.359375 0.09375q0.4375 0 0.875 0q0.4375 0 0.859375 0q0.5 0 0.703125 -0.296875q0.21875 -0.296875 0.390625 -0.71875q0.0625 -0.15625 0.171875 -0.234375q0.109375 -0.09375 0.21875 -0.09375q0.09375 0 0.15625 0.109375q0.078125 0.109375 0.0625 0.3125q-0.03125 0.421875 -0.0625 0.78125q-0.03125 0.359375 -0.03125 0.640625q0 0.375 0.015625 0.625q0.03125 0.234375 0.0625 0.671875q0.03125 0.265625 -0.03125 0.390625q-0.0625 0.125 -0.15625 0.125q-0.125 0 -0.265625 -0.125q-0.125 -0.140625 -0.1875 -0.328125q-0.15625 -0.578125 -0.375 -0.78125q-0.21875 -0.203125 -0.578125 -0.203125q-0.203125 0 -0.421875 0q-0.21875 0 -0.421875 0q-0.265625 0 -0.546875 0q-0.28125 0 -0.546875 0q-0.203125 0 -0.3125 0.109375q-0.09375 0.109375 -0.09375 0.328125q0 0.828125 0.015625 1.75q0.015625 0.90625 0.015625 1.75q0 0.578125 0.328125 0.8125q0.328125 0.21875 1.140625 0.375q0.15625 0.046875 0.25 0.140625q0.09375 0.078125 0.09375 0.25q0 0.140625 -0.078125 0.21875q-0.0625 0.0625 -0.21875 0.0625q-0.390625 0 -0.984375 -0.015625q-0.59375 -0.015625 -1.1875 -0.03125q-0.59375 -0.015625 -0.953125 -0.015625q-0.375 0 -0.875 0.015625q-0.5 0.015625 -1.015625 0.046875q-0.5 0.03125 -0.921875 0.03125zm13.538696 0q-0.125 0 -0.265625 -0.078125q-0.125 -0.078125 -0.125 -0.203125q0 -0.171875 0.109375 -0.265625q0.125 -0.109375 0.296875 -0.15625q0.703125 -0.140625 1.015625 -0.359375q0.3125 -0.234375 0.3125 -0.8125l0 -7.796875q0 -0.703125 -0.046875 -1.03125q-0.03125 -0.328125 -0.09375 -0.421875q-0.046875 -0.109375 -0.140625 -0.15625q-0.140625 -0.09375 -0.40625 -0.109375q-0.265625 -0.015625 -0.359375 -0.015625l-0.328125 0q-0.609375 0 -1.171875 0.328125q-0.5625 0.3125 -0.890625 0.75q-0.09375 0.140625 -0.28125 0.390625q-0.1875 0.234375 -0.390625 0.421875q-0.203125 0.1875 -0.40625 0.1875q-0.171875 0 -0.25 -0.109375q-0.0625 -0.109375 -0.0625 -0.234375q0 -0.234375 0.140625 -0.5q0.375 -0.734375 0.546875 -1.25q0.171875 -0.53125 0.234375 -1.21875q0.03125 -0.25 0.15625 -0.359375q0.140625 -0.125 0.328125 -0.125q0.15625 0 0.296875 0.25q0.15625 0.234375 0.34375 0.390625q0.203125 0.140625 0.640625 0.21875q0.453125 0.078125 0.703125 0.078125l7.125 -0.015625q0.421875 0 0.734375 -0.09375q0.3125 -0.09375 0.4375 -0.171875q0.3125 -0.1875 0.5 -0.40625q0.1875 -0.234375 0.4375 -0.234375q0.125 0 0.171875 0.078125q0.046875 0.078125 0.046875 0.21875q0 0.078125 -0.015625 0.171875q0 0.09375 -0.015625 0.1875q-0.09375 0.375 -0.203125 0.75q-0.109375 0.359375 -0.171875 0.703125q-0.0625 0.328125 -0.0625 0.65625l0 0.390625q0 0.34375 -0.0625 0.515625q-0.0625 0.171875 -0.25 0.171875q-0.1875 0 -0.3125 -0.15625q-0.125 -0.171875 -0.25 -0.5625q-0.25 -0.75 -0.65625 -1.078125q-0.40625 -0.34375 -1.203125 -0.34375l-0.765625 0q-0.296875 0 -0.5 0.15625q-0.203125 0.140625 -0.296875 0.5625q-0.078125 0.421875 -0.078125 1.234375l0 7.5625q0 0.515625 0.28125 0.75q0.296875 0.234375 1.015625 0.4375q0.171875 0.0625 0.28125 0.140625q0.125 0.078125 0.125 0.25q0 0.140625 -0.109375 0.21875q-0.09375 0.0625 -0.234375 0.0625q-0.390625 0 -0.953125 -0.015625q-0.5625 -0.015625 -1.109375 -0.03125q-0.546875 -0.015625 -0.921875 -0.015625q-0.375 0 -0.90625 0.015625q-0.515625 0.015625 -1.046875 0.046875q-0.53125 0.03125 -0.9375 0.03125zm14.508209 -3.109375q-0.203125 0.03125 -0.203125 -0.203125q0 -0.609375 0.109375 -0.875q0.109375 -0.28125 0.34375 -0.3125q1.015625 -0.171875 2.171875 -0.3125q1.15625 -0.15625 2.1875 -0.234375q0.203125 -0.015625 0.25 0.078125q0.0625 0.09375 0.0625 0.234375q0 0.609375 -0.078125 0.8125q-0.0625 0.203125 -0.296875 0.234375q-1.015625 0.15625 -2.265625 0.328125q-1.234375 0.15625 -2.28125 0.25zm12.180939 3.109375q-0.109375 0 -0.21875 -0.078125q-0.109375 -0.078125 -0.109375 -0.203125q0 -0.328125 0.34375 -0.421875q0.484375 -0.125 0.84375 -0.234375q0.359375 -0.125 0.5625 -0.34375q0.203125 -0.21875 0.203125 -0.59375l0 -6.671875q0 -0.46875 -0.234375 -0.703125q-0.234375 -0.25 -0.59375 -0.359375q-0.359375 -0.109375 -0.78125 -0.1875q-0.140625 -0.046875 -0.3125 -0.140625q-0.171875 -0.09375 -0.171875 -0.3125q0 -0.265625 0.171875 -0.375q0.1875 -0.109375 0.421875 -0.125q1.15625 -0.078125 2.078125 -0.359375q0.9375 -0.28125 1.84375 -0.75q0.046875 -0.015625 0.09375 -0.03125q0.0625 -0.03125 0.140625 -0.03125q0.140625 0 0.265625 0.0625q0.140625 0.046875 0.140625 0.140625q0 0.21875 -0.0625 0.53125q-0.046875 0.296875 -0.046875 0.828125l0 8.46875q0 0.328125 0.234375 0.546875q0.25 0.21875 0.640625 0.359375q0.40625 0.140625 0.890625 0.28125q0.171875 0.0625 0.265625 0.140625q0.09375 0.078125 0.09375 0.25q0 0.28125 -0.296875 0.28125q-0.390625 0 -1.015625 -0.015625q-0.625 -0.015625 -1.234375 -0.03125q-0.609375 -0.015625 -0.984375 -0.015625q-0.375 0 -0.96875 0.015625q-0.578125 0.015625 -1.1875 0.046875q-0.609375 0.03125 -1.015625 0.03125z" fill-rule="nonzero"/><path fill="#000000" fill-opacity="0.0" d="m346.7349 391.56168l66.80316 0l0 42.015747l-66.80316 0z" fill-rule="evenodd"/><path fill="#000000" d="m361.06302 420.71606l0 -17.53125l0.9375 0l0 17.53125l-0.9375 0zm0.40625 -2.125q-1.46875 0 -2.796875 -0.46875q-1.328125 -0.484375 -2.0625 -1.21875l0.546875 -1.078125q0.6875 0.671875 1.84375 1.140625q1.171875 0.453125 2.46875 0.453125q1.21875 0 1.984375 -0.296875q0.78125 -0.3125 1.140625 -0.828125q0.375 -0.53125 0.375 -1.171875q0 -0.765625 -0.4375 -1.234375q-0.4375 -0.46875 -1.15625 -0.734375q-0.703125 -0.265625 -1.5625 -0.46875q-0.859375 -0.203125 -1.71875 -0.4375q-0.859375 -0.234375 -1.578125 -0.625q-0.703125 -0.390625 -1.15625 -1.03125q-0.4375 -0.65625 -0.4375 -1.703125q0 -0.96875 0.515625 -1.78125q0.515625 -0.8125 1.578125 -1.296875q1.0625 -0.5 2.71875 -0.5q1.109375 0 2.1875 0.3125q1.078125 0.296875 1.875 0.84375l-0.46875 1.109375q-0.84375 -0.5625 -1.796875 -0.828125q-0.9375 -0.265625 -1.8125 -0.265625q-1.171875 0 -1.9375 0.328125q-0.765625 0.3125 -1.125 0.84375q-0.359375 0.53125 -0.359375 1.203125q0 0.765625 0.4375 1.234375q0.4375 0.46875 1.15625 0.734375q0.71875 0.25 1.5625 0.453125q0.859375 0.203125 1.703125 0.453125q0.859375 0.234375 1.578125 0.625q0.71875 0.375 1.15625 1.015625q0.4375 0.625 0.4375 1.65625q0 0.953125 -0.53125 1.765625q-0.515625 0.8125 -1.59375 1.3125q-1.0625 0.484375 -2.734375 0.484375zm10.583832 -13.28125q1.734375 0 2.921875 0.78125q1.203125 0.765625 1.8125 2.21875q0.625 1.453125 0.625 3.53125q0 2.203125 -0.765625 3.71875q-0.75 1.5 -2.09375 2.265625q-1.34375 0.765625 -3.109375 0.765625q-0.875 0 -1.671875 -0.15625q-0.796875 -0.171875 -1.421875 -0.546875l0.53125 -1.078125q0.515625 0.328125 1.171875 0.46875q0.65625 0.140625 1.375 0.140625q2.109375 0 3.359375 -1.34375q1.265625 -1.34375 1.265625 -4.015625q0 -0.421875 -0.046875 -1.015625q-0.046875 -0.609375 -0.21875 -1.203125l0.46875 0.359375q-0.1875 0.96875 -0.796875 1.65625q-0.609375 0.671875 -1.5 1.03125q-0.875 0.34375 -1.953125 0.34375q-1.296875 0 -2.296875 -0.484375q-0.984375 -0.484375 -1.546875 -1.359375q-0.5625 -0.875 -0.5625 -2.0625q0 -1.234375 0.578125 -2.125q0.578125 -0.90625 1.59375 -1.390625q1.015625 -0.5 2.28125 -0.5zm0.0625 1.140625q-0.9375 0 -1.65625 0.34375q-0.71875 0.34375 -1.125 0.984375q-0.40625 0.625 -0.40625 1.5q0 1.296875 0.875 2.0625q0.890625 0.765625 2.40625 0.765625q1.0 0 1.75 -0.375q0.765625 -0.375 1.1875 -1.03125q0.421875 -0.65625 0.421875 -1.453125q0 -0.734375 -0.390625 -1.359375q-0.390625 -0.640625 -1.15625 -1.03125q-0.765625 -0.40625 -1.90625 -0.40625zm12.205414 12.140625q-1.578125 0 -2.703125 -0.4375q-1.125 -0.453125 -1.734375 -1.296875q-0.609375 -0.859375 -0.609375 -2.015625q0 -1.109375 0.59375 -1.90625q0.59375 -0.796875 1.71875 -1.21875q1.125 -0.4375 2.734375 -0.4375q1.578125 0 2.71875 0.4375q1.140625 0.421875 1.734375 1.21875q0.609375 0.796875 0.609375 1.90625q0 1.15625 -0.609375 2.015625q-0.609375 0.84375 -1.75 1.296875q-1.140625 0.4375 -2.703125 0.4375zm0 -1.140625q1.734375 0 2.703125 -0.703125q0.984375 -0.703125 0.984375 -1.921875q0 -1.21875 -0.984375 -1.90625q-0.96875 -0.703125 -2.703125 -0.703125q-1.734375 0 -2.71875 0.703125q-0.96875 0.6875 -0.96875 1.90625q0 1.21875 0.96875 1.921875q0.984375 0.703125 2.71875 0.703125zm0 -5.40625q-1.453125 0 -2.484375 -0.390625q-1.015625 -0.390625 -1.5625 -1.125q-0.53125 -0.734375 -0.53125 -1.765625q0 -1.078125 0.5625 -1.84375q0.578125 -0.78125 1.59375 -1.1875q1.03125 -0.421875 2.421875 -0.421875q1.375 0 2.40625 0.421875q1.046875 0.40625 1.625 1.1875q0.578125 0.765625 0.578125 1.84375q0 1.03125 -0.546875 1.765625q-0.546875 0.734375 -1.578125 1.125q-1.03125 0.390625 -2.484375 0.390625zm0 -0.890625q1.53125 0 2.375 -0.625q0.859375 -0.640625 0.859375 -1.703125q0 -1.125 -0.890625 -1.75q-0.875 -0.625 -2.34375 -0.625q-1.484375 0 -2.359375 0.625q-0.875 0.625 -0.875 1.71875q0 1.09375 0.84375 1.734375q0.859375 0.625 2.390625 0.625z" fill-rule="nonzero"/><path fill="#000000" fill-opacity="0.0" d="m341.7743 470.063l76.724396 0l0 42.015747l-76.724396 0z" fill-rule="evenodd"/><path fill="#000000" d="m355.80554 483.81113q1.734375 0 2.921875 0.78125q1.203125 0.765625 1.8125 2.21875q0.625 1.453125 0.625 3.53125q0 2.203125 -0.765625 3.71875q-0.75 1.5 -2.09375 2.265625q-1.34375 0.765625 -3.109375 0.765625q-0.875 0 -1.671875 -0.15625q-0.796875 -0.171875 -1.421875 -0.546875l0.53125 -1.078125q0.515625 0.328125 1.171875 0.46875q0.65625 0.140625 1.375 0.140625q2.109375 0 3.359375 -1.34375q1.265625 -1.34375 1.265625 -4.015625q0 -0.421875 -0.046875 -1.015625q-0.046875 -0.609375 -0.21875 -1.203125l0.46875 0.359375q-0.1875 0.96875 -0.796875 1.65625q-0.609375 0.671875 -1.5 1.03125q-0.875 0.34375 -1.953125 0.34375q-1.296875 0 -2.296875 -0.484375q-0.984375 -0.484375 -1.546875 -1.359375q-0.5625 -0.875 -0.5625 -2.0625q0 -1.234375 0.578125 -2.125q0.578125 -0.90625 1.59375 -1.390625q1.015625 -0.5 2.28125 -0.5zm0.0625 1.140625q-0.9375 0 -1.65625 0.34375q-0.71875 0.34375 -1.125 0.984375q-0.40625 0.625 -0.40625 1.5q0 1.296875 0.875 2.0625q0.890625 0.765625 2.40625 0.765625q1.0 0 1.75 -0.375q0.765625 -0.375 1.1875 -1.03125q0.421875 -0.65625 0.421875 -1.453125q0 -0.734375 -0.390625 -1.359375q-0.390625 -0.640625 -1.15625 -1.03125q-0.765625 -0.40625 -1.90625 -0.40625zm9.517914 12.03125l0 -12.5l0.59375 0.640625l-3.671875 0l0 -1.203125l4.421875 0l0 13.0625l-1.34375 0zm5.469269 0.09375q-0.421875 0 -0.71875 -0.296875q-0.28125 -0.296875 -0.28125 -0.734375q0 -0.4375 0.28125 -0.71875q0.296875 -0.28125 0.71875 -0.28125q0.40625 0 0.6875 0.28125q0.296875 0.28125 0.296875 0.71875q0 0.4375 -0.296875 0.734375q-0.28125 0.296875 -0.6875 0.296875zm8.09491 0.015625q-1.578125 0 -2.703125 -0.4375q-1.125 -0.453125 -1.734375 -1.296875q-0.609375 -0.859375 -0.609375 -2.015625q0 -1.109375 0.59375 -1.90625q0.59375 -0.796875 1.71875 -1.21875q1.125 -0.4375 2.734375 -0.4375q1.578125 0 2.71875 0.4375q1.140625 0.421875 1.734375 1.21875q0.609375 0.796875 0.609375 1.90625q0 1.15625 -0.609375 2.015625q-0.609375 0.84375 -1.75 1.296875q-1.140625 0.4375 -2.703125 0.4375zm0 -1.140625q1.734375 0 2.703125 -0.703125q0.984375 -0.703125 0.984375 -1.921875q0 -1.21875 -0.984375 -1.90625q-0.96875 -0.703125 -2.703125 -0.703125q-1.734375 0 -2.71875 0.703125q-0.96875 0.6875 -0.96875 1.90625q0 1.21875 0.96875 1.921875q0.984375 0.703125 2.71875 0.703125zm0 -5.40625q-1.453125 0 -2.484375 -0.390625q-1.015625 -0.390625 -1.5625 -1.125q-0.53125 -0.734375 -0.53125 -1.765625q0 -1.078125 0.5625 -1.84375q0.578125 -0.78125 1.59375 -1.1875q1.03125 -0.421875 2.421875 -0.421875q1.375 0 2.40625 0.421875q1.046875 0.40625 1.625 1.1875q0.578125 0.765625 0.578125 1.84375q0 1.03125 -0.546875 1.765625q-0.546875 0.734375 -1.578125 1.125q-1.03125 0.390625 -2.484375 0.390625zm0 -0.890625q1.53125 0 2.375 -0.625q0.859375 -0.640625 0.859375 -1.703125q0 -1.125 -0.890625 -1.75q-0.875 -0.625 -2.34375 -0.625q-1.484375 0 -2.359375 0.625q-0.875 0.625 -0.875 1.71875q0 1.09375 0.84375 1.734375q0.859375 0.625 2.390625 0.625zm8.497284 7.328125l8.921875 -13.0625l1.109375 0l-8.921875 13.0625l-1.109375 0zm1.015625 -6.0625q-0.875 0 -1.546875 -0.4375q-0.671875 -0.4375 -1.046875 -1.234375q-0.359375 -0.8125 -0.359375 -1.875q0 -1.0625 0.359375 -1.859375q0.375 -0.8125 1.046875 -1.25q0.671875 -0.4375 1.546875 -0.4375q0.875 0 1.53125 0.4375q0.671875 0.4375 1.03125 1.25q0.375 0.796875 0.375 1.859375q0 1.0625 -0.375 1.875q-0.359375 0.796875 -1.03125 1.234375q-0.65625 0.4375 -1.53125 0.4375zm0 -0.84375q0.90625 0 1.453125 -0.71875q0.5625 -0.71875 0.5625 -1.984375q0 -1.265625 -0.5625 -1.984375q-0.546875 -0.71875 -1.453125 -0.71875q-0.9375 0 -1.484375 0.71875q-0.53125 0.71875 -0.53125 1.984375q0 1.265625 0.53125 1.984375q0.546875 0.71875 1.484375 0.71875zm8.0 7.0q-0.859375 0 -1.53125 -0.4375q-0.671875 -0.4375 -1.046875 -1.234375q-0.375 -0.8125 -0.375 -1.875q0 -1.0625 0.375 -1.859375q0.375 -0.8125 1.046875 -1.25q0.671875 -0.4375 1.53125 -0.4375q0.890625 0 1.546875 0.4375q0.671875 0.4375 1.03125 1.25q0.375 0.796875 0.375 1.859375q0 1.0625 -0.375 1.875q-0.359375 0.796875 -1.03125 1.234375q-0.65625 0.4375 -1.546875 0.4375zm0 -0.84375q0.921875 0 1.46875 -0.71875q0.546875 -0.71875 0.546875 -1.984375q0 -1.265625 -0.546875 -1.984375q-0.546875 -0.71875 -1.46875 -0.71875q-0.90625 0 -1.46875 0.71875q-0.546875 0.71875 -0.546875 1.984375q0 1.265625 0.546875 1.984375q0.5625 0.71875 1.46875 0.71875z" fill-rule="nonzero"/></g></svg>